<svg xmlns="http://www.w3.org/2000/svg" xmlns:xlink="http://www.w3.org/1999/xlink" width="290" zoomAndPan="magnify" viewBox="0 0 217.5 58.499998" height="78" preserveAspectRatio="xMidYMid meet" version="1.0"><defs><g/><clipPath id="42d8c3b2e5"><path d="M 9 10 L 57 10 L 57 58 L 9 58 Z M 9 10 " clip-rule="nonzero"/></clipPath><clipPath id="e397cc2ce3"><path d="M -13.726562 33.875 L 32.546875 -12.398438 L 78.820312 33.875 L 32.546875 80.152344 Z M -13.726562 33.875 " clip-rule="nonzero"/></clipPath><clipPath id="4e6c5bd42b"><path d="M -13.726562 33.875 L 32.546875 -12.398438 L 78.820312 33.875 L 32.546875 80.152344 Z M -13.726562 33.875 " clip-rule="nonzero"/></clipPath><clipPath id="3ed1dfc911"><path d="M -13.726562 33.875 L 32.738281 -12.585938 L 79.203125 33.875 L 32.738281 80.339844 Z M -13.726562 33.875 " clip-rule="nonzero"/></clipPath><clipPath id="de94fae128"><path d="M 35 0.285156 L 41 0.285156 L 41 15 L 35 15 Z M 35 0.285156 " clip-rule="nonzero"/></clipPath><clipPath id="c8df80a9b3"><path d="M 4.742188 40 L 16 40 L 16 44 L 4.742188 44 Z M 4.742188 40 " clip-rule="nonzero"/></clipPath><clipPath id="8b28518270"><path d="M 50 33 L 60.515625 33 L 60.515625 37 L 50 37 Z M 50 33 " clip-rule="nonzero"/></clipPath><clipPath id="a811963f44"><path d="M 14 20 L 33 20 L 33 57.546875 L 14 57.546875 Z M 14 20 " clip-rule="nonzero"/></clipPath><clipPath id="d5bf6e5ca5"><path d="M 31 19 L 47 19 L 47 57.546875 L 31 57.546875 Z M 31 19 " clip-rule="nonzero"/></clipPath></defs><g fill="#62b94e" fill-opacity="1"><g transform="translate(64.284061, 34.708571)"><g><path d="M 13.21875 -18.671875 L 6 -18.671875 C 3.488281 -18.671875 2.234375 -17.519531 2.234375 -15.21875 L 1.625 -15.21875 L 1.625 -17.46875 C 1.625 -19.070312 2.476562 -19.875 4.1875 -19.875 L 17.296875 -19.875 L 4.484375 -1.203125 L 16.84375 -1.203125 L 16.84375 0 L 0.71875 0 L 0.71875 -0.609375 Z M 13.21875 -18.671875 "/></g></g></g><g fill="#62b94e" fill-opacity="1"><g transform="translate(82.086771, 34.708571)"><g><path d="M 3.1875 -16.265625 C 3.1875 -17.285156 3.046875 -18.039062 2.765625 -18.53125 C 2.484375 -19.03125 1.921875 -19.28125 1.078125 -19.28125 L 0.484375 -19.28125 L 0.484375 -19.875 L 13.3125 -19.875 C 15.019531 -19.875 15.875 -19.070312 15.875 -17.46875 L 15.875 -15.21875 L 15.265625 -15.21875 C 15.265625 -17.519531 14.007812 -18.671875 11.5 -18.671875 L 5.90625 -18.671875 L 5.90625 -10.84375 L 14.03125 -10.84375 L 14.03125 -9.640625 L 5.90625 -9.640625 L 5.90625 -1.203125 L 11.171875 -1.203125 C 12.554688 -1.203125 13.640625 -1.453125 14.421875 -1.953125 C 15.210938 -2.460938 15.835938 -3.316406 16.296875 -4.515625 L 16.90625 -4.375 L 15.84375 -1.5 C 15.476562 -0.5 14.726562 0 13.59375 0 L 3.1875 0 Z M 3.1875 -16.265625 "/></g></g></g><g fill="#62b94e" fill-opacity="1"><g transform="translate(99.85936, 34.708571)"><g><path d="M 4.515625 0 L 3.3125 0 L 3.3125 -16.265625 C 3.3125 -17.234375 3.101562 -17.976562 2.6875 -18.5 C 2.28125 -19.019531 1.585938 -19.28125 0.609375 -19.28125 L 0.296875 -19.28125 L 0.296875 -19.875 L 2.265625 -19.875 C 3.179688 -19.875 3.960938 -19.722656 4.609375 -19.421875 C 5.253906 -19.128906 5.828125 -18.679688 6.328125 -18.078125 L 16.875 -4.96875 L 16.875 -19.875 L 18.078125 -19.875 L 18.078125 0.296875 L 17.46875 0.296875 L 4.515625 -15.8125 Z M 4.515625 0 "/></g></g></g><g fill="#62b94e" fill-opacity="1"><g transform="translate(120.493645, 34.708571)"><g/></g></g><g fill="#62b94e" fill-opacity="1"><g transform="translate(128.024409, 34.708571)"><g><path d="M 3.1875 -16.265625 C 3.1875 -17.285156 3.046875 -18.039062 2.765625 -18.53125 C 2.484375 -19.03125 1.921875 -19.28125 1.078125 -19.28125 L 0.484375 -19.28125 L 0.484375 -19.875 L 3.1875 -19.875 C 3.9375 -19.875 4.492188 -19.78125 4.859375 -19.59375 C 5.234375 -19.40625 5.5 -19.054688 5.65625 -18.546875 C 5.820312 -18.046875 5.90625 -17.285156 5.90625 -16.265625 L 5.90625 -1.203125 L 16.59375 -1.203125 L 16.59375 0 L 3.1875 0 Z M 3.1875 -16.265625 "/></g></g></g><g fill="#62b94e" fill-opacity="1"><g transform="translate(144.833067, 34.708571)"><g><path d="M 3.1875 -16.265625 C 3.1875 -17.285156 3.046875 -18.039062 2.765625 -18.53125 C 2.484375 -19.03125 1.921875 -19.28125 1.078125 -19.28125 L 0.484375 -19.28125 L 0.484375 -19.875 L 13.3125 -19.875 C 15.019531 -19.875 15.875 -19.070312 15.875 -17.46875 L 15.875 -15.21875 L 15.265625 -15.21875 C 15.265625 -17.519531 14.007812 -18.671875 11.5 -18.671875 L 5.90625 -18.671875 L 5.90625 -10.84375 L 14.03125 -10.84375 L 14.03125 -9.640625 L 5.90625 -9.640625 L 5.90625 -1.203125 L 11.171875 -1.203125 C 12.554688 -1.203125 13.640625 -1.453125 14.421875 -1.953125 C 15.210938 -2.460938 15.835938 -3.316406 16.296875 -4.515625 L 16.90625 -4.375 L 15.84375 -1.5 C 15.476562 -0.5 14.726562 0 13.59375 0 L 3.1875 0 Z M 3.1875 -16.265625 "/></g></g></g><g fill="#62b94e" fill-opacity="1"><g transform="translate(162.605656, 34.708571)"><g><path d="M 18.734375 0.15625 C 17.773438 0.15625 16.820312 -0.109375 15.875 -0.640625 C 14.925781 -1.179688 14.171875 -2.222656 13.609375 -3.765625 L 12.859375 -5.71875 L 4.421875 -5.71875 L 2.015625 0 L 0.65625 0 L 9.09375 -19.875 L 10 -19.875 L 16.625 -3.765625 C 17.125 -2.597656 17.59375 -1.796875 18.03125 -1.359375 C 18.476562 -0.929688 19.113281 -0.679688 19.9375 -0.609375 L 19.9375 0 C 19.582031 0.101562 19.179688 0.15625 18.734375 0.15625 Z M 12.265625 -6.921875 L 8.640625 -15.671875 L 4.875 -6.921875 Z M 12.265625 -6.921875 "/></g></g></g><g fill="#62b94e" fill-opacity="1"><g transform="translate(181.733787, 34.708571)"><g><path d="M 3.1875 -16.265625 C 3.1875 -17.285156 3.046875 -18.039062 2.765625 -18.53125 C 2.484375 -19.03125 1.921875 -19.28125 1.078125 -19.28125 L 0.484375 -19.28125 L 0.484375 -19.875 L 12.5 -19.875 C 14.207031 -19.875 15.0625 -19.070312 15.0625 -17.46875 L 15.0625 -15.21875 L 14.453125 -15.21875 C 14.453125 -17.519531 13.195312 -18.671875 10.6875 -18.671875 L 5.90625 -18.671875 L 5.90625 -10.6875 L 12.71875 -10.6875 L 12.71875 -9.484375 L 5.90625 -9.484375 L 5.90625 0 L 3.1875 0 Z M 3.1875 -16.265625 "/></g></g></g><g fill="#4cc087" fill-opacity="1"><g transform="translate(64.284061, 53.343128)"><g><path d="M 1.828125 -9.3125 C 1.828125 -9.894531 1.742188 -10.328125 1.578125 -10.609375 C 1.421875 -10.890625 1.101562 -11.03125 0.625 -11.03125 L 0.28125 -11.03125 L 0.28125 -11.375 L 4.75 -11.375 C 5.851562 -11.375 6.847656 -11.140625 7.734375 -10.671875 C 8.617188 -10.203125 9.0625 -9.285156 9.0625 -7.921875 C 9.0625 -7.023438 8.832031 -6.335938 8.375 -5.859375 C 7.914062 -5.378906 7.398438 -5.054688 6.828125 -4.890625 C 6.265625 -4.734375 5.75 -4.65625 5.28125 -4.65625 L 3.375 -4.65625 L 3.375 0 L 1.828125 0 Z M 4.671875 -5.25 C 5.035156 -5.25 5.425781 -5.34375 5.84375 -5.53125 C 6.257812 -5.726562 6.613281 -6.03125 6.90625 -6.4375 C 7.195312 -6.851562 7.34375 -7.378906 7.34375 -8.015625 C 7.34375 -8.648438 7.195312 -9.171875 6.90625 -9.578125 C 6.613281 -9.992188 6.257812 -10.296875 5.84375 -10.484375 C 5.425781 -10.671875 5.035156 -10.765625 4.671875 -10.765625 C 4.265625 -10.765625 3.832031 -10.707031 3.375 -10.59375 L 3.375 -5.421875 C 3.832031 -5.304688 4.265625 -5.25 4.671875 -5.25 Z M 4.671875 -5.25 "/></g></g></g><g fill="#4cc087" fill-opacity="1"><g transform="translate(73.797172, 53.343128)"><g><path d="M 1.828125 -9.3125 C 1.828125 -9.894531 1.742188 -10.328125 1.578125 -10.609375 C 1.421875 -10.890625 1.101562 -11.03125 0.625 -11.03125 L 0.28125 -11.03125 L 0.28125 -11.375 L 1.828125 -11.375 C 2.253906 -11.375 2.570312 -11.316406 2.78125 -11.203125 C 3 -11.097656 3.148438 -10.898438 3.234375 -10.609375 C 3.328125 -10.328125 3.375 -9.894531 3.375 -9.3125 L 3.375 -0.6875 L 9.5 -0.6875 L 9.5 0 L 1.828125 0 Z M 1.828125 -9.3125 "/></g></g></g><g fill="#4cc087" fill-opacity="1"><g transform="translate(83.413689, 53.343128)"><g><path d="M 10.71875 0.09375 C 10.164062 0.09375 9.617188 -0.0546875 9.078125 -0.359375 C 8.535156 -0.671875 8.109375 -1.269531 7.796875 -2.15625 L 7.359375 -3.28125 L 2.53125 -3.28125 L 1.15625 0 L 0.375 0 L 5.203125 -11.375 L 5.71875 -11.375 L 9.515625 -2.15625 C 9.796875 -1.488281 10.0625 -1.03125 10.3125 -0.78125 C 10.570312 -0.53125 10.9375 -0.382812 11.40625 -0.34375 L 11.40625 0 C 11.195312 0.0625 10.96875 0.09375 10.71875 0.09375 Z M 7.015625 -3.96875 L 4.953125 -8.96875 L 2.796875 -3.96875 Z M 7.015625 -3.96875 "/></g></g></g><g fill="#4cc087" fill-opacity="1"><g transform="translate(94.357221, 53.343128)"><g><path d="M 2.578125 0 L 1.890625 0 L 1.890625 -9.3125 C 1.890625 -9.863281 1.769531 -10.285156 1.53125 -10.578125 C 1.300781 -10.878906 0.90625 -11.03125 0.34375 -11.03125 L 0.171875 -11.03125 L 0.171875 -11.375 L 1.296875 -11.375 C 1.816406 -11.375 2.257812 -11.285156 2.625 -11.109375 C 3 -10.941406 3.332031 -10.6875 3.625 -10.34375 L 9.65625 -2.84375 L 9.65625 -11.375 L 10.34375 -11.375 L 10.34375 0.171875 L 10 0.171875 L 2.578125 -9.046875 Z M 2.578125 0 "/></g></g></g><g fill="#4cc087" fill-opacity="1"><g transform="translate(106.162447, 53.343128)"><g><path d="M 2.859375 -10.6875 C 1.421875 -10.6875 0.703125 -10.023438 0.703125 -8.703125 L 0.359375 -8.703125 L 0.359375 -10 C 0.359375 -10.914062 0.847656 -11.375 1.828125 -11.375 L 9.84375 -11.375 L 9.84375 -10.6875 L 5.96875 -10.6875 L 5.96875 0 L 4.40625 0 L 4.40625 -10.6875 Z M 2.859375 -10.6875 "/></g></g></g><g fill="#4cc087" fill-opacity="1"><g transform="translate(116.209812, 53.343128)"><g><path d="M 4.859375 0.296875 C 4.222656 0.296875 3.597656 0.207031 2.984375 0.03125 C 2.378906 -0.132812 1.882812 -0.378906 1.5 -0.703125 C 1.125 -1.023438 0.9375 -1.394531 0.9375 -1.8125 L 0.9375 -3.65625 L 1.234375 -3.65625 C 1.429688 -2.507812 1.8125 -1.675781 2.375 -1.15625 C 2.9375 -0.644531 3.710938 -0.390625 4.703125 -0.390625 C 5.328125 -0.390625 5.859375 -0.546875 6.296875 -0.859375 C 6.742188 -1.171875 6.96875 -1.601562 6.96875 -2.15625 C 6.96875 -2.632812 6.816406 -3.050781 6.515625 -3.40625 C 6.210938 -3.769531 5.726562 -4.144531 5.0625 -4.53125 L 2.953125 -5.796875 C 2.210938 -6.234375 1.691406 -6.675781 1.390625 -7.125 C 1.085938 -7.570312 0.9375 -8.113281 0.9375 -8.75 C 0.9375 -9.632812 1.242188 -10.34375 1.859375 -10.875 C 2.472656 -11.414062 3.28125 -11.6875 4.28125 -11.6875 C 4.863281 -11.6875 5.441406 -11.601562 6.015625 -11.4375 C 6.585938 -11.269531 7.0625 -11.023438 7.4375 -10.703125 C 7.8125 -10.390625 8 -10.023438 8 -9.609375 L 8 -7.765625 L 7.6875 -7.765625 C 7.488281 -8.921875 7.113281 -9.75 6.5625 -10.25 C 6.019531 -10.75 5.257812 -11 4.28125 -11 C 3.75 -11 3.28125 -10.835938 2.875 -10.515625 C 2.476562 -10.191406 2.28125 -9.769531 2.28125 -9.25 C 2.28125 -8.78125 2.425781 -8.390625 2.71875 -8.078125 C 3.007812 -7.773438 3.5 -7.414062 4.1875 -7 L 6.3125 -5.734375 C 7.09375 -5.265625 7.640625 -4.828125 7.953125 -4.421875 C 8.273438 -4.023438 8.4375 -3.515625 8.4375 -2.890625 C 8.4375 -1.929688 8.113281 -1.160156 7.46875 -0.578125 C 6.832031 0.00390625 5.960938 0.296875 4.859375 0.296875 Z M 4.859375 0.296875 "/></g></g></g><g fill="#4cc087" fill-opacity="1"><g transform="translate(125.395482, 53.343128)"><g/></g></g><g fill="#4cc087" fill-opacity="1"><g transform="translate(129.703954, 53.343128)"><g><path d="M 4.859375 0.296875 C 4.222656 0.296875 3.597656 0.207031 2.984375 0.03125 C 2.378906 -0.132812 1.882812 -0.378906 1.5 -0.703125 C 1.125 -1.023438 0.9375 -1.394531 0.9375 -1.8125 L 0.9375 -3.65625 L 1.234375 -3.65625 C 1.429688 -2.507812 1.8125 -1.675781 2.375 -1.15625 C 2.9375 -0.644531 3.710938 -0.390625 4.703125 -0.390625 C 5.328125 -0.390625 5.859375 -0.546875 6.296875 -0.859375 C 6.742188 -1.171875 6.96875 -1.601562 6.96875 -2.15625 C 6.96875 -2.632812 6.816406 -3.050781 6.515625 -3.40625 C 6.210938 -3.769531 5.726562 -4.144531 5.0625 -4.53125 L 2.953125 -5.796875 C 2.210938 -6.234375 1.691406 -6.675781 1.390625 -7.125 C 1.085938 -7.570312 0.9375 -8.113281 0.9375 -8.75 C 0.9375 -9.632812 1.242188 -10.34375 1.859375 -10.875 C 2.472656 -11.414062 3.28125 -11.6875 4.28125 -11.6875 C 4.863281 -11.6875 5.441406 -11.601562 6.015625 -11.4375 C 6.585938 -11.269531 7.0625 -11.023438 7.4375 -10.703125 C 7.8125 -10.390625 8 -10.023438 8 -9.609375 L 8 -7.765625 L 7.6875 -7.765625 C 7.488281 -8.921875 7.113281 -9.75 6.5625 -10.25 C 6.019531 -10.75 5.257812 -11 4.28125 -11 C 3.75 -11 3.28125 -10.835938 2.875 -10.515625 C 2.476562 -10.191406 2.28125 -9.769531 2.28125 -9.25 C 2.28125 -8.78125 2.425781 -8.390625 2.71875 -8.078125 C 3.007812 -7.773438 3.5 -7.414062 4.1875 -7 L 6.3125 -5.734375 C 7.09375 -5.265625 7.640625 -4.828125 7.953125 -4.421875 C 8.273438 -4.023438 8.4375 -3.515625 8.4375 -2.890625 C 8.4375 -1.929688 8.113281 -1.160156 7.46875 -0.578125 C 6.832031 0.00390625 5.960938 0.296875 4.859375 0.296875 Z M 4.859375 0.296875 "/></g></g></g><g fill="#4cc087" fill-opacity="1"><g transform="translate(138.889625, 53.343128)"><g><path d="M 1.828125 -9.3125 C 1.828125 -9.894531 1.742188 -10.328125 1.578125 -10.609375 C 1.421875 -10.890625 1.101562 -11.03125 0.625 -11.03125 L 0.28125 -11.03125 L 0.28125 -11.375 L 7.625 -11.375 C 8.59375 -11.375 9.078125 -10.914062 9.078125 -10 L 9.078125 -8.703125 L 8.734375 -8.703125 C 8.734375 -10.023438 8.015625 -10.6875 6.578125 -10.6875 L 3.375 -10.6875 L 3.375 -6.203125 L 8.03125 -6.203125 L 8.03125 -5.515625 L 3.375 -5.515625 L 3.375 -0.6875 L 6.390625 -0.6875 C 7.179688 -0.6875 7.800781 -0.828125 8.25 -1.109375 C 8.695312 -1.398438 9.054688 -1.890625 9.328125 -2.578125 L 9.671875 -2.5 L 9.0625 -0.859375 C 8.851562 -0.285156 8.421875 0 7.765625 0 L 1.828125 0 Z M 1.828125 -9.3125 "/></g></g></g><g fill="#4cc087" fill-opacity="1"><g transform="translate(149.057627, 53.343128)"><g><path d="M 9.40625 0.171875 C 8.800781 0.171875 8.269531 -0.00390625 7.8125 -0.359375 C 7.363281 -0.722656 6.863281 -1.378906 6.3125 -2.328125 L 4.578125 -5.25 L 3.375 -5.25 L 3.375 0 L 1.828125 0 L 1.828125 -9.3125 C 1.828125 -9.894531 1.742188 -10.328125 1.578125 -10.609375 C 1.421875 -10.890625 1.101562 -11.03125 0.625 -11.03125 L 0.28125 -11.03125 L 0.28125 -11.375 L 4.75 -11.375 C 5.84375 -11.375 6.832031 -11.15625 7.71875 -10.71875 C 8.613281 -10.289062 9.0625 -9.472656 9.0625 -8.265625 C 9.0625 -6.742188 8.144531 -5.769531 6.3125 -5.34375 L 8.125 -2.328125 C 8.539062 -1.617188 8.914062 -1.117188 9.25 -0.828125 C 9.59375 -0.546875 9.988281 -0.382812 10.4375 -0.34375 L 10.4375 0 C 10.332031 0.0390625 10.1875 0.078125 10 0.109375 C 9.8125 0.148438 9.613281 0.171875 9.40625 0.171875 Z M 4.671875 -5.859375 C 5.023438 -5.859375 5.410156 -5.941406 5.828125 -6.109375 C 6.253906 -6.285156 6.613281 -6.554688 6.90625 -6.921875 C 7.195312 -7.296875 7.34375 -7.742188 7.34375 -8.265625 C 7.34375 -8.828125 7.195312 -9.296875 6.90625 -9.671875 C 6.613281 -10.046875 6.253906 -10.320312 5.828125 -10.5 C 5.410156 -10.675781 5.023438 -10.765625 4.671875 -10.765625 C 4.265625 -10.765625 3.832031 -10.707031 3.375 -10.59375 L 3.375 -6.03125 C 3.832031 -5.914062 4.265625 -5.859375 4.671875 -5.859375 Z M 4.671875 -5.859375 "/></g></g></g><g fill="#4cc087" fill-opacity="1"><g transform="translate(159.311795, 53.343128)"><g><path d="M 1.390625 -9.359375 C 1.109375 -10.023438 0.835938 -10.476562 0.578125 -10.71875 C 0.328125 -10.96875 -0.03125 -11.117188 -0.5 -11.171875 L -0.5 -11.515625 C -0.4375 -11.515625 -0.351562 -11.519531 -0.25 -11.53125 C -0.144531 -11.539062 -0.03125 -11.546875 0.09375 -11.546875 C 0.664062 -11.546875 1.210938 -11.398438 1.734375 -11.109375 C 2.265625 -10.816406 2.710938 -10.234375 3.078125 -9.359375 L 6.03125 -2.40625 L 7.046875 -4.78125 C 7.523438 -5.894531 8.453125 -8.09375 9.828125 -11.375 L 10.65625 -11.375 L 5.703125 0.171875 L 5.390625 0.171875 Z M 1.390625 -9.359375 "/></g></g></g><g fill="#4cc087" fill-opacity="1"><g transform="translate(170.341492, 53.343128)"><g><path d="M 3.078125 0 C 2.660156 0 2.34375 -0.0507812 2.125 -0.15625 C 1.914062 -0.269531 1.765625 -0.46875 1.671875 -0.75 C 1.578125 -1.039062 1.53125 -1.476562 1.53125 -2.0625 L 1.53125 -11.375 L 3.078125 -11.375 L 3.078125 -2.0625 C 3.078125 -1.476562 3.15625 -1.046875 3.3125 -0.765625 C 3.476562 -0.484375 3.804688 -0.34375 4.296875 -0.34375 L 4.640625 -0.34375 L 4.640625 0 Z M 3.078125 0 "/></g></g></g><g fill="#4cc087" fill-opacity="1"><g transform="translate(175.253152, 53.343128)"><g><path d="M 6.09375 0.34375 C 5.03125 0.34375 4.09375 0.0859375 3.28125 -0.421875 C 2.46875 -0.941406 1.84375 -1.644531 1.40625 -2.53125 C 0.976562 -3.425781 0.765625 -4.421875 0.765625 -5.515625 C 0.765625 -6.640625 1 -7.675781 1.46875 -8.625 C 1.945312 -9.582031 2.597656 -10.335938 3.421875 -10.890625 C 4.242188 -11.441406 5.132812 -11.71875 6.09375 -11.71875 C 7.019531 -11.71875 7.828125 -11.585938 8.515625 -11.328125 C 9.210938 -11.066406 9.726562 -10.738281 10.0625 -10.34375 C 10.257812 -10.101562 10.378906 -9.785156 10.421875 -9.390625 C 10.472656 -8.992188 10.5 -8.445312 10.5 -7.75 L 10.15625 -7.75 C 9.9375 -8.863281 9.53125 -9.6875 8.9375 -10.21875 C 8.351562 -10.757812 7.582031 -11.03125 6.625 -11.03125 C 5.375 -11.03125 4.367188 -10.59375 3.609375 -9.71875 C 2.859375 -8.84375 2.484375 -7.441406 2.484375 -5.515625 C 2.484375 -4.609375 2.628906 -3.765625 2.921875 -2.984375 C 3.210938 -2.203125 3.664062 -1.566406 4.28125 -1.078125 C 4.90625 -0.585938 5.6875 -0.34375 6.625 -0.34375 C 7.457031 -0.34375 8.1875 -0.539062 8.8125 -0.9375 C 9.4375 -1.34375 10 -1.945312 10.5 -2.75 L 10.84375 -2.5 C 10.3125 -1.46875 9.65625 -0.734375 8.875 -0.296875 C 8.101562 0.128906 7.175781 0.34375 6.09375 0.34375 Z M 6.09375 0.34375 "/></g></g></g><g fill="#4cc087" fill-opacity="1"><g transform="translate(186.713696, 53.343128)"><g><path d="M 1.828125 -9.3125 C 1.828125 -9.894531 1.742188 -10.328125 1.578125 -10.609375 C 1.421875 -10.890625 1.101562 -11.03125 0.625 -11.03125 L 0.28125 -11.03125 L 0.28125 -11.375 L 7.625 -11.375 C 8.59375 -11.375 9.078125 -10.914062 9.078125 -10 L 9.078125 -8.703125 L 8.734375 -8.703125 C 8.734375 -10.023438 8.015625 -10.6875 6.578125 -10.6875 L 3.375 -10.6875 L 3.375 -6.203125 L 8.03125 -6.203125 L 8.03125 -5.515625 L 3.375 -5.515625 L 3.375 -0.6875 L 6.390625 -0.6875 C 7.179688 -0.6875 7.800781 -0.828125 8.25 -1.109375 C 8.695312 -1.398438 9.054688 -1.890625 9.328125 -2.578125 L 9.671875 -2.5 L 9.0625 -0.859375 C 8.851562 -0.285156 8.421875 0 7.765625 0 L 1.828125 0 Z M 1.828125 -9.3125 "/></g></g></g><g clip-path="url(#42d8c3b2e5)"><g clip-path="url(#e397cc2ce3)"><g clip-path="url(#4e6c5bd42b)"><g clip-path="url(#3ed1dfc911)"><path fill="#4cc087" d="M 11.859375 12.628906 C 11.785156 12.628906 11.726562 12.570312 11.726562 12.496094 C 11.726562 12.425781 11.785156 12.363281 11.859375 12.363281 C 11.929688 12.363281 11.988281 12.425781 11.992188 12.496094 C 11.988281 12.535156 11.976562 12.566406 11.953125 12.589844 C 11.925781 12.613281 11.894531 12.628906 11.859375 12.628906 Z M 11.355469 13.316406 C 11.285156 13.316406 11.226562 13.257812 11.226562 13.183594 C 11.226562 13.113281 11.285156 13.054688 11.355469 13.054688 C 11.429688 13.054688 11.488281 13.113281 11.488281 13.183594 C 11.488281 13.222656 11.472656 13.253906 11.449219 13.277344 C 11.425781 13.300781 11.394531 13.320312 11.355469 13.316406 Z M 13.046875 12.628906 C 12.972656 12.628906 12.914062 12.570312 12.914062 12.496094 C 12.914062 12.421875 12.972656 12.363281 13.046875 12.363281 C 13.121094 12.363281 13.179688 12.421875 13.179688 12.496094 C 13.179688 12.535156 13.164062 12.566406 13.140625 12.589844 C 13.117188 12.613281 13.082031 12.628906 13.046875 12.628906 Z M 11.355469 14.507812 C 11.285156 14.507812 11.222656 14.449219 11.222656 14.375 C 11.222656 14.304688 11.285156 14.242188 11.355469 14.242188 C 11.429688 14.242188 11.488281 14.304688 11.488281 14.375 C 11.488281 14.414062 11.476562 14.445312 11.449219 14.46875 C 11.425781 14.492188 11.394531 14.507812 11.355469 14.507812 Z M 14.238281 12.628906 C 14.164062 12.628906 14.105469 12.570312 14.105469 12.496094 C 14.105469 12.421875 14.164062 12.363281 14.238281 12.367188 C 14.308594 12.363281 14.371094 12.421875 14.367188 12.496094 C 14.371094 12.535156 14.355469 12.566406 14.332031 12.589844 C 14.308594 12.613281 14.273438 12.628906 14.238281 12.628906 Z M 11.355469 15.699219 C 11.285156 15.699219 11.226562 15.640625 11.226562 15.566406 C 11.222656 15.492188 11.285156 15.433594 11.355469 15.433594 C 11.429688 15.433594 11.488281 15.492188 11.488281 15.566406 C 11.488281 15.601562 11.472656 15.632812 11.449219 15.65625 C 11.425781 15.683594 11.390625 15.699219 11.355469 15.699219 Z M 15.425781 12.628906 C 15.355469 12.628906 15.292969 12.570312 15.292969 12.496094 C 15.292969 12.421875 15.355469 12.363281 15.425781 12.363281 C 15.5 12.363281 15.558594 12.421875 15.558594 12.496094 C 15.558594 12.535156 15.546875 12.566406 15.519531 12.589844 C 15.496094 12.613281 15.464844 12.628906 15.425781 12.628906 Z M 11.355469 16.886719 C 11.285156 16.886719 11.226562 16.828125 11.226562 16.753906 C 11.222656 16.683594 11.285156 16.621094 11.355469 16.625 C 11.429688 16.625 11.488281 16.683594 11.488281 16.753906 C 11.488281 16.792969 11.476562 16.824219 11.449219 16.847656 C 11.425781 16.871094 11.394531 16.886719 11.355469 16.886719 Z M 16.617188 12.628906 C 16.542969 12.628906 16.484375 12.570312 16.484375 12.496094 C 16.484375 12.425781 16.542969 12.363281 16.617188 12.363281 C 16.691406 12.363281 16.75 12.425781 16.75 12.496094 C 16.75 12.535156 16.734375 12.566406 16.710938 12.589844 C 16.6875 12.613281 16.652344 12.628906 16.617188 12.628906 Z M 11.355469 18.078125 C 11.285156 18.078125 11.222656 18.019531 11.222656 17.945312 C 11.222656 17.871094 11.285156 17.8125 11.355469 17.8125 C 11.429688 17.8125 11.488281 17.871094 11.488281 17.945312 C 11.488281 17.980469 11.472656 18.015625 11.449219 18.039062 C 11.425781 18.0625 11.394531 18.078125 11.355469 18.078125 Z M 17.808594 12.628906 C 17.734375 12.628906 17.675781 12.570312 17.675781 12.496094 C 17.675781 12.425781 17.734375 12.363281 17.808594 12.363281 C 17.878906 12.363281 17.9375 12.425781 17.941406 12.496094 C 17.9375 12.535156 17.925781 12.566406 17.902344 12.589844 C 17.875 12.613281 17.84375 12.628906 17.808594 12.628906 Z M 11.355469 19.265625 C 11.285156 19.265625 11.226562 19.207031 11.226562 19.136719 C 11.226562 19.0625 11.285156 19.003906 11.355469 19.003906 C 11.429688 19.003906 11.488281 19.0625 11.488281 19.136719 C 11.488281 19.171875 11.476562 19.207031 11.449219 19.230469 C 11.425781 19.253906 11.394531 19.269531 11.355469 19.265625 Z M 18.996094 12.628906 C 18.925781 12.628906 18.867188 12.570312 18.863281 12.496094 C 18.863281 12.421875 18.921875 12.363281 18.996094 12.363281 C 19.070312 12.363281 19.128906 12.421875 19.128906 12.496094 C 19.128906 12.535156 19.113281 12.566406 19.089844 12.589844 C 19.066406 12.613281 19.03125 12.628906 18.996094 12.628906 Z M 11.355469 20.457031 C 11.285156 20.457031 11.222656 20.398438 11.222656 20.324219 C 11.222656 20.253906 11.285156 20.191406 11.355469 20.191406 C 11.429688 20.191406 11.488281 20.253906 11.488281 20.324219 C 11.488281 20.363281 11.476562 20.394531 11.449219 20.417969 C 11.425781 20.441406 11.394531 20.457031 11.355469 20.457031 Z M 20.1875 12.628906 C 20.113281 12.628906 20.054688 12.570312 20.054688 12.496094 C 20.054688 12.421875 20.113281 12.363281 20.1875 12.363281 C 20.257812 12.363281 20.320312 12.425781 20.316406 12.496094 C 20.320312 12.535156 20.304688 12.566406 20.28125 12.589844 C 20.257812 12.613281 20.222656 12.628906 20.1875 12.628906 Z M 11.355469 21.648438 C 11.285156 21.648438 11.226562 21.589844 11.226562 21.515625 C 11.222656 21.441406 11.285156 21.382812 11.355469 21.382812 C 11.429688 21.382812 11.488281 21.441406 11.488281 21.515625 C 11.488281 21.550781 11.472656 21.585938 11.449219 21.609375 C 11.425781 21.632812 11.394531 21.648438 11.355469 21.648438 Z M 21.375 12.628906 C 21.304688 12.628906 21.242188 12.570312 21.246094 12.496094 C 21.242188 12.425781 21.304688 12.363281 21.375 12.363281 C 21.449219 12.363281 21.507812 12.421875 21.507812 12.496094 C 21.507812 12.535156 21.496094 12.566406 21.46875 12.589844 C 21.445312 12.613281 21.414062 12.628906 21.375 12.628906 Z M 11.355469 22.835938 C 11.285156 22.835938 11.226562 22.777344 11.222656 22.707031 C 11.226562 22.632812 11.285156 22.574219 11.355469 22.574219 C 11.429688 22.574219 11.488281 22.632812 11.488281 22.703125 C 11.488281 22.742188 11.476562 22.773438 11.449219 22.800781 C 11.425781 22.820312 11.394531 22.835938 11.355469 22.835938 Z M 22.566406 12.628906 C 22.492188 12.628906 22.433594 12.570312 22.433594 12.496094 C 22.433594 12.421875 22.492188 12.363281 22.566406 12.363281 C 22.640625 12.363281 22.699219 12.421875 22.699219 12.496094 C 22.699219 12.53125 22.683594 12.566406 22.660156 12.589844 C 22.636719 12.613281 22.601562 12.628906 22.566406 12.628906 Z M 11.355469 24.027344 C 11.285156 24.027344 11.222656 23.96875 11.222656 23.894531 C 11.222656 23.820312 11.285156 23.761719 11.355469 23.761719 C 11.429688 23.761719 11.488281 23.820312 11.488281 23.894531 C 11.488281 23.929688 11.472656 23.964844 11.449219 23.988281 C 11.425781 24.011719 11.394531 24.027344 11.355469 24.027344 Z M 23.757812 12.628906 C 23.683594 12.628906 23.625 12.570312 23.625 12.496094 C 23.625 12.421875 23.683594 12.363281 23.753906 12.363281 C 23.828125 12.363281 23.886719 12.421875 23.886719 12.496094 C 23.890625 12.535156 23.875 12.566406 23.851562 12.589844 C 23.824219 12.613281 23.792969 12.628906 23.757812 12.628906 Z M 11.355469 25.214844 C 11.285156 25.214844 11.226562 25.15625 11.226562 25.085938 C 11.226562 25.011719 11.285156 24.953125 11.355469 24.953125 C 11.429688 24.953125 11.488281 25.011719 11.488281 25.085938 C 11.488281 25.121094 11.472656 25.152344 11.449219 25.175781 C 11.425781 25.203125 11.394531 25.21875 11.355469 25.214844 Z M 24.945312 12.628906 C 24.875 12.628906 24.8125 12.570312 24.8125 12.496094 C 24.8125 12.425781 24.875 12.363281 24.945312 12.363281 C 25.019531 12.363281 25.078125 12.421875 25.078125 12.496094 C 25.078125 12.535156 25.0625 12.566406 25.039062 12.589844 C 25.015625 12.613281 24.984375 12.628906 24.945312 12.628906 Z M 11.355469 26.40625 C 11.28125 26.40625 11.222656 26.347656 11.222656 26.273438 C 11.226562 26.199219 11.285156 26.140625 11.355469 26.140625 C 11.429688 26.140625 11.488281 26.199219 11.488281 26.273438 C 11.488281 26.3125 11.476562 26.34375 11.449219 26.367188 C 11.425781 26.390625 11.394531 26.40625 11.355469 26.40625 Z M 26.136719 12.628906 C 26.0625 12.628906 26.003906 12.570312 26.003906 12.496094 C 26.003906 12.425781 26.0625 12.367188 26.136719 12.363281 C 26.207031 12.363281 26.269531 12.425781 26.269531 12.496094 C 26.269531 12.535156 26.253906 12.566406 26.230469 12.589844 C 26.207031 12.613281 26.171875 12.628906 26.136719 12.628906 Z M 11.355469 27.597656 C 11.285156 27.597656 11.226562 27.539062 11.222656 27.464844 C 11.226562 27.390625 11.285156 27.332031 11.355469 27.332031 C 11.429688 27.332031 11.488281 27.390625 11.488281 27.464844 C 11.488281 27.5 11.472656 27.535156 11.449219 27.558594 C 11.425781 27.582031 11.394531 27.597656 11.355469 27.597656 Z M 27.328125 12.628906 C 27.253906 12.628906 27.195312 12.570312 27.195312 12.496094 C 27.195312 12.421875 27.253906 12.363281 27.328125 12.363281 C 27.398438 12.363281 27.457031 12.421875 27.457031 12.496094 C 27.457031 12.535156 27.441406 12.566406 27.417969 12.589844 C 27.394531 12.613281 27.363281 12.628906 27.328125 12.628906 Z M 11.355469 28.785156 C 11.28125 28.785156 11.222656 28.726562 11.226562 28.652344 C 11.226562 28.582031 11.285156 28.523438 11.355469 28.523438 C 11.429688 28.523438 11.488281 28.582031 11.488281 28.652344 C 11.488281 28.691406 11.476562 28.722656 11.449219 28.75 C 11.425781 28.773438 11.394531 28.785156 11.355469 28.785156 Z M 28.515625 12.628906 C 28.441406 12.628906 28.382812 12.570312 28.382812 12.496094 C 28.382812 12.421875 28.445312 12.363281 28.515625 12.363281 C 28.589844 12.363281 28.648438 12.421875 28.648438 12.496094 C 28.648438 12.535156 28.632812 12.566406 28.609375 12.589844 C 28.585938 12.613281 28.550781 12.628906 28.515625 12.628906 Z M 11.355469 29.976562 C 11.285156 29.976562 11.222656 29.917969 11.222656 29.84375 C 11.222656 29.769531 11.285156 29.710938 11.355469 29.710938 C 11.429688 29.710938 11.488281 29.769531 11.488281 29.84375 C 11.488281 29.878906 11.476562 29.914062 11.449219 29.9375 C 11.425781 29.960938 11.394531 29.976562 11.355469 29.976562 Z M 29.707031 12.628906 C 29.632812 12.628906 29.574219 12.570312 29.574219 12.496094 C 29.574219 12.425781 29.632812 12.363281 29.707031 12.363281 C 29.777344 12.363281 29.835938 12.425781 29.839844 12.496094 C 29.839844 12.535156 29.824219 12.566406 29.800781 12.589844 C 29.777344 12.613281 29.742188 12.628906 29.707031 12.628906 Z M 11.355469 31.164062 C 11.285156 31.164062 11.226562 31.105469 11.226562 31.035156 C 11.226562 30.960938 11.285156 30.902344 11.355469 30.902344 C 11.429688 30.902344 11.488281 30.960938 11.488281 31.035156 C 11.488281 31.070312 11.472656 31.101562 11.449219 31.128906 C 11.425781 31.152344 11.394531 31.167969 11.355469 31.164062 Z M 30.894531 12.628906 C 30.824219 12.628906 30.765625 12.570312 30.765625 12.496094 C 30.761719 12.425781 30.824219 12.363281 30.894531 12.363281 C 30.96875 12.363281 31.027344 12.421875 31.027344 12.496094 C 31.027344 12.535156 31.011719 12.566406 30.988281 12.589844 C 30.964844 12.613281 30.933594 12.628906 30.894531 12.628906 Z M 11.355469 32.355469 C 11.28125 32.355469 11.222656 32.296875 11.222656 32.222656 C 11.222656 32.152344 11.285156 32.089844 11.355469 32.089844 C 11.429688 32.089844 11.488281 32.148438 11.488281 32.222656 C 11.488281 32.261719 11.476562 32.292969 11.449219 32.316406 C 11.425781 32.34375 11.394531 32.355469 11.355469 32.355469 Z M 32.085938 12.628906 C 32.011719 12.628906 31.953125 12.570312 31.953125 12.496094 C 31.953125 12.421875 32.011719 12.363281 32.085938 12.363281 C 32.160156 12.363281 32.21875 12.421875 32.21875 12.496094 C 32.21875 12.53125 32.203125 12.566406 32.179688 12.589844 C 32.15625 12.613281 32.121094 12.628906 32.085938 12.628906 Z M 11.355469 33.546875 C 11.285156 33.546875 11.222656 33.484375 11.226562 33.414062 C 11.222656 33.339844 11.28125 33.28125 11.355469 33.28125 C 11.429688 33.28125 11.488281 33.339844 11.488281 33.414062 C 11.488281 33.449219 11.472656 33.484375 11.449219 33.507812 C 11.425781 33.53125 11.394531 33.546875 11.355469 33.546875 Z M 33.277344 12.628906 C 33.203125 12.628906 33.144531 12.570312 33.144531 12.496094 C 33.144531 12.421875 33.203125 12.363281 33.277344 12.363281 C 33.347656 12.363281 33.410156 12.421875 33.410156 12.496094 C 33.40625 12.53125 33.394531 12.566406 33.367188 12.589844 C 33.34375 12.613281 33.3125 12.628906 33.277344 12.628906 Z M 11.355469 34.734375 C 11.285156 34.734375 11.226562 34.675781 11.226562 34.601562 C 11.226562 34.53125 11.285156 34.472656 11.355469 34.472656 C 11.429688 34.472656 11.488281 34.53125 11.488281 34.601562 C 11.488281 34.640625 11.476562 34.671875 11.449219 34.699219 C 11.425781 34.722656 11.394531 34.734375 11.355469 34.734375 Z M 34.464844 12.628906 C 34.394531 12.628906 34.335938 12.570312 34.332031 12.496094 C 34.332031 12.421875 34.394531 12.363281 34.464844 12.363281 C 34.539062 12.363281 34.597656 12.421875 34.597656 12.496094 C 34.597656 12.535156 34.582031 12.566406 34.558594 12.589844 C 34.535156 12.613281 34.503906 12.628906 34.464844 12.628906 Z M 11.355469 35.925781 C 11.285156 35.925781 11.222656 35.867188 11.222656 35.792969 C 11.222656 35.71875 11.285156 35.660156 11.355469 35.660156 C 11.429688 35.660156 11.488281 35.71875 11.488281 35.792969 C 11.488281 35.828125 11.476562 35.863281 11.449219 35.886719 C 11.425781 35.910156 11.394531 35.925781 11.355469 35.925781 Z M 35.65625 12.628906 C 35.582031 12.628906 35.523438 12.570312 35.523438 12.496094 C 35.523438 12.421875 35.582031 12.363281 35.65625 12.363281 C 35.726562 12.363281 35.789062 12.425781 35.785156 12.496094 C 35.789062 12.53125 35.773438 12.566406 35.75 12.589844 C 35.726562 12.613281 35.691406 12.628906 35.65625 12.628906 Z M 11.355469 37.117188 C 11.285156 37.117188 11.226562 37.054688 11.226562 36.984375 C 11.226562 36.910156 11.285156 36.851562 11.355469 36.851562 C 11.429688 36.851562 11.488281 36.910156 11.488281 36.984375 C 11.488281 37.019531 11.472656 37.050781 11.449219 37.074219 C 11.425781 37.101562 11.394531 37.117188 11.355469 37.117188 Z M 36.84375 12.628906 C 36.773438 12.628906 36.714844 12.570312 36.714844 12.496094 C 36.710938 12.421875 36.773438 12.363281 36.847656 12.363281 C 36.917969 12.363281 36.976562 12.421875 36.976562 12.496094 C 36.976562 12.535156 36.960938 12.566406 36.9375 12.589844 C 36.914062 12.613281 36.882812 12.628906 36.84375 12.628906 Z M 11.355469 38.304688 C 11.285156 38.304688 11.222656 38.246094 11.222656 38.171875 C 11.222656 38.101562 11.285156 38.039062 11.355469 38.039062 C 11.429688 38.039062 11.488281 38.101562 11.488281 38.171875 C 11.488281 38.210938 11.476562 38.242188 11.449219 38.265625 C 11.425781 38.289062 11.394531 38.304688 11.355469 38.304688 Z M 38.035156 12.628906 C 37.960938 12.628906 37.902344 12.570312 37.902344 12.496094 C 37.902344 12.421875 37.960938 12.363281 38.035156 12.363281 C 38.109375 12.363281 38.167969 12.421875 38.167969 12.496094 C 38.167969 12.53125 38.152344 12.566406 38.128906 12.589844 C 38.105469 12.613281 38.070312 12.628906 38.035156 12.628906 Z M 11.355469 39.496094 C 11.285156 39.496094 11.226562 39.4375 11.222656 39.363281 C 11.222656 39.289062 11.28125 39.230469 11.355469 39.230469 C 11.429688 39.230469 11.488281 39.289062 11.488281 39.363281 C 11.488281 39.398438 11.472656 39.433594 11.449219 39.457031 C 11.425781 39.480469 11.394531 39.496094 11.355469 39.496094 Z M 39.226562 12.628906 C 39.152344 12.628906 39.09375 12.570312 39.09375 12.496094 C 39.09375 12.425781 39.152344 12.363281 39.226562 12.363281 C 39.296875 12.363281 39.359375 12.421875 39.359375 12.496094 C 39.355469 12.535156 39.34375 12.566406 39.320312 12.589844 C 39.292969 12.613281 39.261719 12.628906 39.226562 12.628906 Z M 11.355469 40.683594 C 11.285156 40.683594 11.226562 40.625 11.226562 40.554688 C 11.226562 40.480469 11.285156 40.421875 11.355469 40.421875 C 11.429688 40.421875 11.488281 40.480469 11.488281 40.554688 C 11.488281 40.589844 11.476562 40.621094 11.449219 40.648438 C 11.425781 40.671875 11.394531 40.683594 11.355469 40.683594 Z M 40.414062 12.628906 C 40.34375 12.628906 40.285156 12.570312 40.28125 12.496094 C 40.285156 12.421875 40.34375 12.363281 40.414062 12.363281 C 40.488281 12.363281 40.546875 12.421875 40.546875 12.496094 C 40.546875 12.535156 40.53125 12.566406 40.507812 12.589844 C 40.484375 12.613281 40.453125 12.628906 40.414062 12.628906 Z M 11.355469 41.875 C 11.285156 41.875 11.222656 41.816406 11.222656 41.742188 C 11.222656 41.667969 11.285156 41.609375 11.355469 41.609375 C 11.429688 41.609375 11.488281 41.667969 11.488281 41.742188 C 11.488281 41.78125 11.476562 41.8125 11.449219 41.835938 C 11.425781 41.859375 11.394531 41.875 11.355469 41.875 Z M 41.605469 12.628906 C 41.53125 12.628906 41.472656 12.570312 41.472656 12.496094 C 41.472656 12.421875 41.53125 12.363281 41.605469 12.363281 C 41.675781 12.363281 41.734375 12.421875 41.738281 12.496094 C 41.738281 12.53125 41.722656 12.566406 41.699219 12.589844 C 41.675781 12.613281 41.640625 12.628906 41.605469 12.628906 Z M 11.355469 43.066406 C 11.285156 43.066406 11.226562 43.007812 11.226562 42.933594 C 11.226562 42.859375 11.285156 42.800781 11.355469 42.800781 C 11.429688 42.800781 11.488281 42.859375 11.488281 42.933594 C 11.488281 42.96875 11.472656 43.003906 11.449219 43.027344 C 11.425781 43.050781 11.394531 43.066406 11.355469 43.066406 Z M 42.792969 12.628906 C 42.722656 12.628906 42.664062 12.570312 42.660156 12.496094 C 42.660156 12.425781 42.722656 12.363281 42.792969 12.363281 C 42.867188 12.363281 42.925781 12.421875 42.925781 12.496094 C 42.925781 12.535156 42.914062 12.566406 42.886719 12.589844 C 42.863281 12.613281 42.832031 12.628906 42.792969 12.628906 Z M 11.355469 44.253906 C 11.285156 44.253906 11.222656 44.195312 11.222656 44.125 C 11.226562 44.050781 11.285156 43.988281 11.355469 43.988281 C 11.429688 43.988281 11.488281 44.050781 11.488281 44.121094 C 11.488281 44.160156 11.476562 44.191406 11.449219 44.214844 C 11.425781 44.238281 11.394531 44.253906 11.355469 44.253906 Z M 43.984375 12.628906 C 43.910156 12.628906 43.851562 12.570312 43.851562 12.496094 C 43.851562 12.421875 43.910156 12.363281 43.984375 12.363281 C 44.058594 12.363281 44.117188 12.421875 44.117188 12.496094 C 44.117188 12.535156 44.101562 12.566406 44.078125 12.589844 C 44.054688 12.613281 44.019531 12.628906 43.984375 12.628906 Z M 11.355469 45.445312 C 11.285156 45.445312 11.226562 45.386719 11.222656 45.3125 C 11.222656 45.238281 11.28125 45.179688 11.355469 45.179688 C 11.429688 45.179688 11.488281 45.238281 11.488281 45.3125 C 11.488281 45.347656 11.472656 45.382812 11.449219 45.40625 C 11.425781 45.429688 11.394531 45.445312 11.355469 45.445312 Z M 45.175781 12.628906 C 45.101562 12.628906 45.042969 12.570312 45.042969 12.496094 C 45.042969 12.421875 45.101562 12.363281 45.175781 12.363281 C 45.246094 12.363281 45.308594 12.421875 45.308594 12.496094 C 45.304688 12.53125 45.292969 12.566406 45.269531 12.589844 C 45.242188 12.613281 45.210938 12.628906 45.175781 12.628906 Z M 11.355469 46.632812 C 11.285156 46.632812 11.226562 46.574219 11.226562 46.503906 C 11.226562 46.429688 11.285156 46.371094 11.355469 46.371094 C 11.429688 46.371094 11.488281 46.429688 11.488281 46.503906 C 11.488281 46.539062 11.476562 46.570312 11.449219 46.597656 C 11.425781 46.621094 11.394531 46.636719 11.355469 46.632812 Z M 46.363281 12.628906 C 46.292969 12.628906 46.234375 12.570312 46.234375 12.496094 C 46.234375 12.421875 46.292969 12.363281 46.363281 12.363281 C 46.4375 12.363281 46.496094 12.421875 46.496094 12.496094 C 46.496094 12.535156 46.480469 12.566406 46.457031 12.589844 C 46.433594 12.613281 46.402344 12.628906 46.363281 12.628906 Z M 11.355469 47.824219 C 11.285156 47.824219 11.222656 47.765625 11.222656 47.691406 C 11.222656 47.621094 11.285156 47.558594 11.355469 47.558594 C 11.429688 47.558594 11.488281 47.621094 11.488281 47.691406 C 11.488281 47.730469 11.476562 47.761719 11.449219 47.785156 C 11.425781 47.808594 11.394531 47.824219 11.355469 47.824219 Z M 47.554688 12.628906 C 47.480469 12.628906 47.421875 12.570312 47.421875 12.496094 C 47.421875 12.421875 47.480469 12.363281 47.554688 12.363281 C 47.625 12.363281 47.683594 12.421875 47.683594 12.496094 C 47.6875 12.535156 47.671875 12.566406 47.648438 12.589844 C 47.625 12.613281 47.589844 12.628906 47.554688 12.628906 Z M 11.355469 49.015625 C 11.285156 49.015625 11.226562 48.957031 11.226562 48.882812 C 11.226562 48.808594 11.285156 48.75 11.355469 48.75 C 11.429688 48.75 11.488281 48.808594 11.488281 48.882812 C 11.488281 48.917969 11.472656 48.953125 11.449219 48.976562 C 11.425781 49 11.394531 49.015625 11.355469 49.015625 Z M 48.746094 12.628906 C 48.671875 12.628906 48.609375 12.570312 48.609375 12.496094 C 48.609375 12.421875 48.671875 12.363281 48.742188 12.363281 C 48.816406 12.363281 48.875 12.421875 48.875 12.496094 C 48.875 12.53125 48.863281 12.566406 48.835938 12.589844 C 48.8125 12.613281 48.78125 12.628906 48.746094 12.628906 Z M 11.355469 50.203125 C 11.285156 50.203125 11.222656 50.144531 11.226562 50.070312 C 11.226562 50 11.285156 49.941406 11.355469 49.941406 C 11.429688 49.941406 11.488281 50 11.488281 50.070312 C 11.488281 50.109375 11.476562 50.140625 11.449219 50.167969 C 11.425781 50.191406 11.394531 50.203125 11.355469 50.203125 Z M 49.933594 12.628906 C 49.859375 12.628906 49.800781 12.570312 49.800781 12.496094 C 49.800781 12.421875 49.859375 12.363281 49.933594 12.363281 C 50.007812 12.363281 50.066406 12.421875 50.066406 12.496094 C 50.066406 12.53125 50.050781 12.566406 50.027344 12.589844 C 50.003906 12.613281 49.96875 12.628906 49.933594 12.628906 Z M 11.355469 51.394531 C 11.285156 51.394531 11.222656 51.335938 11.222656 51.261719 C 11.222656 51.1875 11.285156 51.128906 11.355469 51.128906 C 11.429688 51.128906 11.488281 51.1875 11.488281 51.261719 C 11.488281 51.296875 11.472656 51.332031 11.449219 51.355469 C 11.425781 51.378906 11.394531 51.394531 11.355469 51.394531 Z M 50.824219 12.628906 C 50.75 12.628906 50.691406 12.570312 50.691406 12.496094 C 50.691406 12.421875 50.75 12.363281 50.824219 12.363281 C 50.894531 12.363281 50.957031 12.425781 50.957031 12.496094 C 50.953125 12.53125 50.941406 12.566406 50.917969 12.589844 C 50.890625 12.613281 50.859375 12.628906 50.824219 12.628906 Z M 11.355469 52.582031 C 11.285156 52.582031 11.226562 52.523438 11.226562 52.453125 C 11.226562 52.378906 11.285156 52.320312 11.355469 52.320312 C 11.429688 52.320312 11.488281 52.378906 11.488281 52.453125 C 11.488281 52.488281 11.476562 52.523438 11.449219 52.546875 C 11.425781 52.570312 11.394531 52.585938 11.355469 52.582031 Z M 52.011719 12.628906 C 51.941406 12.628906 51.878906 12.570312 51.882812 12.496094 C 51.882812 12.421875 51.941406 12.363281 52.011719 12.363281 C 52.085938 12.363281 52.144531 12.421875 52.144531 12.496094 C 52.144531 12.535156 52.128906 12.566406 52.105469 12.589844 C 52.082031 12.613281 52.050781 12.628906 52.011719 12.628906 Z M 11.355469 53.773438 C 11.285156 53.773438 11.222656 53.714844 11.222656 53.640625 C 11.222656 53.570312 11.285156 53.507812 11.355469 53.507812 C 11.429688 53.507812 11.488281 53.570312 11.488281 53.640625 C 11.488281 53.679688 11.476562 53.710938 11.449219 53.734375 C 11.425781 53.757812 11.394531 53.773438 11.355469 53.773438 Z M 53.203125 12.628906 C 53.128906 12.628906 53.070312 12.570312 53.070312 12.496094 C 53.070312 12.421875 53.128906 12.363281 53.203125 12.363281 C 53.273438 12.363281 53.335938 12.421875 53.335938 12.496094 C 53.335938 12.535156 53.320312 12.566406 53.296875 12.589844 C 53.273438 12.613281 53.238281 12.628906 53.203125 12.628906 Z M 11.355469 54.964844 C 11.285156 54.964844 11.226562 54.90625 11.226562 54.832031 C 11.226562 54.757812 11.285156 54.699219 11.355469 54.699219 C 11.429688 54.699219 11.488281 54.757812 11.488281 54.832031 C 11.488281 54.867188 11.472656 54.902344 11.449219 54.925781 C 11.425781 54.949219 11.394531 54.964844 11.355469 54.964844 Z M 54.117188 12.90625 C 54.042969 12.90625 53.984375 12.84375 53.984375 12.773438 C 53.984375 12.699219 54.042969 12.640625 54.117188 12.640625 C 54.191406 12.640625 54.25 12.699219 54.25 12.773438 C 54.25 12.808594 54.234375 12.84375 54.210938 12.863281 C 54.1875 12.890625 54.152344 12.90625 54.117188 12.90625 Z M 12.121094 55.390625 C 12.046875 55.390625 11.988281 55.328125 11.988281 55.257812 C 11.988281 55.183594 12.046875 55.125 12.121094 55.125 C 12.195312 55.125 12.253906 55.183594 12.253906 55.257812 C 12.253906 55.292969 12.238281 55.328125 12.214844 55.351562 C 12.191406 55.375 12.160156 55.390625 12.121094 55.390625 Z M 54.117188 14.09375 C 54.042969 14.09375 53.984375 14.035156 53.984375 13.960938 C 53.984375 13.890625 54.042969 13.828125 54.117188 13.828125 C 54.191406 13.828125 54.25 13.890625 54.25 13.960938 C 54.25 13.996094 54.234375 14.03125 54.210938 14.054688 C 54.1875 14.078125 54.152344 14.09375 54.117188 14.09375 Z M 13.3125 55.390625 C 13.238281 55.390625 13.179688 55.332031 13.179688 55.257812 C 13.179688 55.183594 13.238281 55.125 13.3125 55.125 C 13.382812 55.125 13.441406 55.183594 13.445312 55.257812 C 13.441406 55.292969 13.429688 55.328125 13.40625 55.351562 C 13.378906 55.375 13.347656 55.390625 13.3125 55.390625 Z M 54.117188 15.285156 C 54.042969 15.285156 53.984375 15.226562 53.984375 15.152344 C 53.984375 15.078125 54.042969 15.019531 54.117188 15.019531 C 54.191406 15.019531 54.25 15.078125 54.25 15.152344 C 54.25 15.1875 54.234375 15.222656 54.210938 15.246094 C 54.1875 15.269531 54.152344 15.285156 54.117188 15.285156 Z M 14.5 55.390625 C 14.429688 55.390625 14.371094 55.332031 14.367188 55.257812 C 14.367188 55.183594 14.429688 55.125 14.5 55.125 C 14.574219 55.125 14.632812 55.183594 14.632812 55.257812 C 14.632812 55.292969 14.617188 55.328125 14.59375 55.351562 C 14.570312 55.375 14.539062 55.390625 14.5 55.390625 Z M 54.117188 16.472656 C 54.042969 16.472656 53.984375 16.414062 53.984375 16.339844 C 53.984375 16.269531 54.042969 16.210938 54.117188 16.207031 C 54.191406 16.210938 54.25 16.269531 54.25 16.339844 C 54.25 16.378906 54.234375 16.410156 54.210938 16.433594 C 54.1875 16.457031 54.152344 16.476562 54.117188 16.472656 Z M 15.691406 55.390625 C 15.617188 55.390625 15.558594 55.328125 15.558594 55.257812 C 15.558594 55.183594 15.617188 55.125 15.691406 55.125 C 15.765625 55.125 15.824219 55.183594 15.824219 55.257812 C 15.824219 55.292969 15.808594 55.324219 15.785156 55.351562 C 15.761719 55.375 15.726562 55.390625 15.691406 55.390625 Z M 54.117188 17.664062 C 54.042969 17.664062 53.984375 17.605469 53.984375 17.53125 C 53.984375 17.457031 54.042969 17.398438 54.117188 17.398438 C 54.191406 17.398438 54.25 17.457031 54.25 17.53125 C 54.25 17.570312 54.234375 17.601562 54.210938 17.625 C 54.1875 17.648438 54.152344 17.664062 54.117188 17.664062 Z M 16.882812 55.390625 C 16.808594 55.386719 16.75 55.328125 16.75 55.257812 C 16.75 55.183594 16.808594 55.125 16.882812 55.125 C 16.953125 55.125 17.011719 55.183594 17.011719 55.257812 C 17.011719 55.292969 16.996094 55.328125 16.972656 55.351562 C 16.949219 55.375 16.917969 55.390625 16.882812 55.390625 Z M 54.117188 18.855469 C 54.042969 18.851562 53.984375 18.792969 53.984375 18.722656 C 53.984375 18.648438 54.042969 18.589844 54.117188 18.589844 C 54.191406 18.589844 54.25 18.648438 54.25 18.722656 C 54.25 18.757812 54.234375 18.789062 54.210938 18.8125 C 54.1875 18.839844 54.152344 18.851562 54.117188 18.855469 Z M 18.070312 55.386719 C 17.996094 55.390625 17.9375 55.332031 17.9375 55.257812 C 17.9375 55.183594 17.996094 55.125 18.070312 55.125 C 18.144531 55.125 18.203125 55.183594 18.203125 55.257812 C 18.203125 55.292969 18.1875 55.328125 18.164062 55.351562 C 18.140625 55.375 18.109375 55.390625 18.070312 55.386719 Z M 54.117188 20.042969 C 54.042969 20.042969 53.984375 19.984375 53.984375 19.910156 C 53.984375 19.839844 54.042969 19.78125 54.117188 19.777344 C 54.191406 19.78125 54.25 19.839844 54.25 19.910156 C 54.25 19.949219 54.234375 19.980469 54.210938 20.003906 C 54.1875 20.027344 54.152344 20.042969 54.117188 20.042969 Z M 19.261719 55.390625 C 19.1875 55.390625 19.128906 55.332031 19.128906 55.257812 C 19.128906 55.183594 19.1875 55.125 19.261719 55.125 C 19.332031 55.125 19.394531 55.183594 19.394531 55.257812 C 19.390625 55.292969 19.378906 55.324219 19.351562 55.351562 C 19.328125 55.375 19.296875 55.390625 19.261719 55.390625 Z M 54.117188 21.234375 C 54.042969 21.234375 53.984375 21.175781 53.984375 21.101562 C 53.984375 21.027344 54.042969 20.96875 54.117188 20.96875 C 54.191406 20.96875 54.25 21.027344 54.25 21.101562 C 54.25 21.136719 54.234375 21.171875 54.210938 21.195312 C 54.1875 21.21875 54.152344 21.234375 54.117188 21.234375 Z M 20.449219 55.390625 C 20.378906 55.390625 20.316406 55.332031 20.316406 55.257812 C 20.320312 55.183594 20.378906 55.125 20.449219 55.125 C 20.523438 55.125 20.582031 55.183594 20.582031 55.257812 C 20.582031 55.292969 20.566406 55.328125 20.542969 55.351562 C 20.519531 55.375 20.488281 55.390625 20.449219 55.390625 Z M 54.117188 22.421875 C 54.042969 22.421875 53.984375 22.363281 53.984375 22.289062 C 53.984375 22.21875 54.042969 22.160156 54.117188 22.160156 C 54.191406 22.160156 54.25 22.21875 54.25 22.292969 C 54.25 22.328125 54.234375 22.359375 54.210938 22.382812 C 54.1875 22.40625 54.152344 22.421875 54.117188 22.421875 Z M 21.640625 55.390625 C 21.566406 55.390625 21.507812 55.328125 21.507812 55.257812 C 21.507812 55.183594 21.566406 55.125 21.640625 55.125 C 21.714844 55.125 21.773438 55.183594 21.773438 55.257812 C 21.773438 55.292969 21.757812 55.328125 21.734375 55.351562 C 21.710938 55.375 21.675781 55.390625 21.640625 55.390625 Z M 54.117188 23.613281 C 54.042969 23.613281 53.984375 23.554688 53.984375 23.480469 C 53.984375 23.40625 54.042969 23.347656 54.117188 23.347656 C 54.191406 23.347656 54.25 23.40625 54.25 23.480469 C 54.25 23.519531 54.234375 23.550781 54.210938 23.574219 C 54.1875 23.597656 54.152344 23.613281 54.117188 23.613281 Z M 22.832031 55.390625 C 22.757812 55.390625 22.699219 55.332031 22.699219 55.257812 C 22.699219 55.183594 22.757812 55.125 22.828125 55.125 C 22.902344 55.125 22.960938 55.183594 22.960938 55.257812 C 22.960938 55.292969 22.945312 55.324219 22.921875 55.351562 C 22.898438 55.375 22.867188 55.390625 22.832031 55.390625 Z M 54.117188 24.804688 C 54.042969 24.804688 53.984375 24.742188 53.984375 24.671875 C 53.984375 24.597656 54.042969 24.539062 54.117188 24.539062 C 54.191406 24.539062 54.25 24.597656 54.25 24.671875 C 54.25 24.707031 54.234375 24.738281 54.210938 24.761719 C 54.1875 24.789062 54.152344 24.800781 54.117188 24.804688 Z M 24.019531 55.390625 C 23.945312 55.390625 23.886719 55.332031 23.886719 55.257812 C 23.886719 55.183594 23.945312 55.125 24.019531 55.125 C 24.09375 55.125 24.152344 55.183594 24.152344 55.257812 C 24.152344 55.292969 24.136719 55.328125 24.113281 55.351562 C 24.089844 55.375 24.054688 55.390625 24.019531 55.390625 Z M 54.117188 25.992188 C 54.042969 25.992188 53.984375 25.933594 53.984375 25.859375 C 53.984375 25.789062 54.042969 25.730469 54.117188 25.730469 C 54.191406 25.730469 54.25 25.789062 54.25 25.859375 C 54.25 25.898438 54.234375 25.929688 54.210938 25.953125 C 54.1875 25.976562 54.152344 25.992188 54.117188 25.992188 Z M 25.210938 55.390625 C 25.136719 55.390625 25.078125 55.328125 25.078125 55.257812 C 25.078125 55.183594 25.136719 55.125 25.210938 55.125 C 25.28125 55.125 25.34375 55.183594 25.34375 55.257812 C 25.339844 55.292969 25.328125 55.328125 25.304688 55.351562 C 25.277344 55.375 25.246094 55.390625 25.210938 55.390625 Z M 54.117188 27.183594 C 54.042969 27.183594 53.984375 27.125 53.984375 27.050781 C 53.984375 26.976562 54.042969 26.917969 54.117188 26.917969 C 54.191406 26.917969 54.25 26.976562 54.25 27.050781 C 54.25 27.085938 54.234375 27.121094 54.210938 27.144531 C 54.1875 27.167969 54.152344 27.183594 54.117188 27.183594 Z M 26.398438 55.390625 C 26.328125 55.390625 26.269531 55.332031 26.269531 55.257812 C 26.269531 55.183594 26.328125 55.125 26.398438 55.125 C 26.472656 55.125 26.53125 55.183594 26.53125 55.257812 C 26.53125 55.292969 26.515625 55.328125 26.492188 55.351562 C 26.46875 55.375 26.4375 55.390625 26.398438 55.390625 Z M 54.117188 28.371094 C 54.042969 28.371094 53.984375 28.3125 53.984375 28.242188 C 53.984375 28.167969 54.042969 28.109375 54.117188 28.109375 C 54.191406 28.109375 54.25 28.167969 54.25 28.242188 C 54.25 28.277344 54.234375 28.308594 54.210938 28.332031 C 54.1875 28.359375 54.152344 28.371094 54.117188 28.371094 Z M 27.589844 55.390625 C 27.515625 55.390625 27.457031 55.332031 27.457031 55.257812 C 27.457031 55.183594 27.515625 55.125 27.589844 55.125 C 27.664062 55.125 27.722656 55.183594 27.722656 55.257812 C 27.722656 55.292969 27.707031 55.328125 27.683594 55.351562 C 27.660156 55.375 27.625 55.390625 27.589844 55.390625 Z M 54.117188 29.5625 C 54.042969 29.5625 53.984375 29.503906 53.984375 29.429688 C 53.984375 29.355469 54.042969 29.296875 54.117188 29.296875 C 54.191406 29.296875 54.25 29.355469 54.25 29.429688 C 54.25 29.464844 54.234375 29.5 54.210938 29.523438 C 54.1875 29.546875 54.152344 29.5625 54.117188 29.5625 Z M 28.777344 55.390625 C 28.707031 55.390625 28.648438 55.328125 28.648438 55.257812 C 28.648438 55.183594 28.707031 55.125 28.777344 55.125 C 28.851562 55.125 28.910156 55.183594 28.910156 55.257812 C 28.910156 55.292969 28.898438 55.324219 28.871094 55.351562 C 28.847656 55.375 28.816406 55.390625 28.777344 55.390625 Z M 54.117188 30.753906 C 54.042969 30.753906 53.984375 30.691406 53.984375 30.621094 C 53.984375 30.546875 54.042969 30.488281 54.117188 30.488281 C 54.191406 30.488281 54.25 30.546875 54.25 30.621094 C 54.25 30.65625 54.234375 30.691406 54.210938 30.714844 C 54.1875 30.738281 54.152344 30.75 54.117188 30.753906 Z M 29.96875 55.390625 C 29.894531 55.386719 29.835938 55.328125 29.835938 55.257812 C 29.835938 55.183594 29.894531 55.125 29.96875 55.125 C 30.042969 55.125 30.101562 55.183594 30.101562 55.257812 C 30.101562 55.292969 30.085938 55.328125 30.0625 55.351562 C 30.039062 55.375 30.003906 55.390625 29.96875 55.390625 Z M 54.117188 31.941406 C 54.042969 31.941406 53.984375 31.882812 53.984375 31.808594 C 53.984375 31.738281 54.042969 31.679688 54.117188 31.679688 C 54.191406 31.679688 54.25 31.738281 54.25 31.808594 C 54.25 31.847656 54.234375 31.878906 54.210938 31.902344 C 54.1875 31.925781 54.152344 31.941406 54.117188 31.941406 Z M 31.160156 55.390625 C 31.085938 55.390625 31.027344 55.332031 31.027344 55.257812 C 31.027344 55.183594 31.085938 55.125 31.160156 55.125 C 31.230469 55.125 31.292969 55.183594 31.292969 55.257812 C 31.292969 55.292969 31.277344 55.328125 31.253906 55.351562 C 31.230469 55.375 31.195312 55.390625 31.160156 55.390625 Z M 54.117188 33.132812 C 54.042969 33.132812 53.984375 33.074219 53.984375 33 C 53.984375 32.925781 54.042969 32.867188 54.117188 32.867188 C 54.191406 32.867188 54.25 32.925781 54.25 33 C 54.25 33.035156 54.234375 33.070312 54.210938 33.09375 C 54.1875 33.117188 54.152344 33.132812 54.117188 33.132812 Z M 32.347656 55.390625 C 32.277344 55.390625 32.21875 55.332031 32.21875 55.257812 C 32.21875 55.183594 32.277344 55.125 32.347656 55.125 C 32.421875 55.125 32.480469 55.183594 32.480469 55.257812 C 32.480469 55.292969 32.464844 55.324219 32.441406 55.347656 C 32.417969 55.375 32.386719 55.390625 32.347656 55.390625 Z M 54.117188 34.320312 C 54.042969 34.320312 53.984375 34.261719 53.984375 34.1875 C 53.984375 34.117188 54.042969 34.058594 54.117188 34.058594 C 54.191406 34.058594 54.25 34.117188 54.25 34.191406 C 54.25 34.226562 54.234375 34.257812 54.210938 34.28125 C 54.1875 34.308594 54.152344 34.320312 54.117188 34.320312 Z M 33.539062 55.390625 C 33.464844 55.390625 33.40625 55.328125 33.40625 55.257812 C 33.40625 55.183594 33.464844 55.125 33.539062 55.125 C 33.613281 55.125 33.671875 55.183594 33.671875 55.257812 C 33.671875 55.292969 33.65625 55.328125 33.632812 55.351562 C 33.609375 55.375 33.574219 55.390625 33.539062 55.390625 Z M 54.117188 35.511719 C 54.042969 35.511719 53.984375 35.453125 53.984375 35.378906 C 53.984375 35.308594 54.042969 35.246094 54.117188 35.246094 C 54.191406 35.246094 54.25 35.304688 54.25 35.378906 C 54.25 35.417969 54.234375 35.449219 54.210938 35.472656 C 54.1875 35.496094 54.152344 35.511719 54.117188 35.511719 Z M 34.730469 55.390625 C 34.65625 55.390625 34.59375 55.328125 34.597656 55.257812 C 34.597656 55.183594 34.65625 55.125 34.730469 55.125 C 34.800781 55.125 34.859375 55.183594 34.859375 55.257812 C 34.859375 55.292969 34.847656 55.328125 34.820312 55.351562 C 34.796875 55.375 34.765625 55.390625 34.730469 55.390625 Z M 54.117188 36.703125 C 54.042969 36.703125 53.984375 36.640625 53.984375 36.570312 C 53.984375 36.496094 54.042969 36.4375 54.117188 36.4375 C 54.1875 36.4375 54.25 36.496094 54.25 36.570312 C 54.25 36.605469 54.234375 36.640625 54.210938 36.664062 C 54.1875 36.6875 54.152344 36.703125 54.117188 36.703125 Z M 35.917969 55.390625 C 35.84375 55.390625 35.785156 55.332031 35.785156 55.257812 C 35.785156 55.183594 35.84375 55.125 35.917969 55.125 C 35.992188 55.125 36.050781 55.183594 36.050781 55.257812 C 36.050781 55.292969 36.035156 55.328125 36.011719 55.351562 C 35.988281 55.375 35.957031 55.390625 35.917969 55.390625 Z M 54.117188 37.890625 C 54.042969 37.890625 53.984375 37.832031 53.984375 37.757812 C 53.984375 37.6875 54.042969 37.628906 54.117188 37.628906 C 54.191406 37.628906 54.25 37.6875 54.25 37.757812 C 54.25 37.796875 54.234375 37.828125 54.210938 37.851562 C 54.1875 37.875 54.152344 37.890625 54.117188 37.890625 Z M 37.109375 55.390625 C 37.035156 55.390625 36.976562 55.332031 36.976562 55.257812 C 36.976562 55.183594 37.035156 55.125 37.109375 55.125 C 37.183594 55.125 37.242188 55.183594 37.242188 55.257812 C 37.242188 55.292969 37.226562 55.324219 37.203125 55.351562 C 37.179688 55.375 37.144531 55.390625 37.109375 55.390625 Z M 54.117188 39.082031 C 54.042969 39.082031 53.984375 39.023438 53.984375 38.949219 C 53.984375 38.875 54.042969 38.816406 54.117188 38.816406 C 54.191406 38.816406 54.25 38.875 54.25 38.949219 C 54.25 38.984375 54.234375 39.019531 54.210938 39.042969 C 54.1875 39.066406 54.152344 39.082031 54.117188 39.082031 Z M 38.296875 55.390625 C 38.226562 55.390625 38.167969 55.332031 38.167969 55.257812 C 38.167969 55.183594 38.226562 55.125 38.296875 55.125 C 38.371094 55.125 38.429688 55.183594 38.429688 55.257812 C 38.429688 55.292969 38.414062 55.328125 38.390625 55.351562 C 38.367188 55.375 38.335938 55.390625 38.296875 55.390625 Z M 54.117188 40.269531 C 54.042969 40.273438 53.984375 40.210938 53.984375 40.136719 C 53.984375 40.066406 54.042969 40.007812 54.117188 40.007812 C 54.1875 40.007812 54.25 40.066406 54.25 40.140625 C 54.25 40.175781 54.234375 40.210938 54.210938 40.234375 C 54.1875 40.257812 54.152344 40.269531 54.117188 40.269531 Z M 39.488281 55.390625 C 39.414062 55.390625 39.355469 55.332031 39.355469 55.257812 C 39.355469 55.183594 39.414062 55.125 39.488281 55.125 C 39.5625 55.125 39.621094 55.183594 39.621094 55.257812 C 39.621094 55.292969 39.605469 55.328125 39.582031 55.351562 C 39.558594 55.375 39.523438 55.386719 39.488281 55.390625 Z M 54.117188 41.460938 C 54.042969 41.460938 53.984375 41.402344 53.984375 41.328125 C 53.984375 41.253906 54.042969 41.195312 54.117188 41.195312 C 54.191406 41.195312 54.25 41.253906 54.25 41.328125 C 54.25 41.367188 54.234375 41.398438 54.210938 41.421875 C 54.1875 41.445312 54.152344 41.460938 54.117188 41.460938 Z M 40.679688 55.390625 C 40.605469 55.390625 40.546875 55.332031 40.546875 55.257812 C 40.546875 55.183594 40.605469 55.125 40.675781 55.125 C 40.75 55.125 40.8125 55.183594 40.8125 55.257812 C 40.808594 55.292969 40.796875 55.324219 40.769531 55.351562 C 40.746094 55.375 40.714844 55.390625 40.679688 55.390625 Z M 54.117188 42.652344 C 54.042969 42.652344 53.984375 42.59375 53.984375 42.519531 C 53.984375 42.445312 54.042969 42.386719 54.117188 42.386719 C 54.191406 42.386719 54.25 42.445312 54.25 42.519531 C 54.25 42.554688 54.234375 42.589844 54.210938 42.613281 C 54.1875 42.636719 54.152344 42.652344 54.117188 42.652344 Z M 41.867188 55.390625 C 41.796875 55.390625 41.734375 55.332031 41.734375 55.257812 C 41.738281 55.183594 41.796875 55.125 41.867188 55.125 C 41.941406 55.125 42 55.183594 42 55.257812 C 42 55.292969 41.984375 55.328125 41.960938 55.351562 C 41.9375 55.375 41.90625 55.390625 41.867188 55.390625 Z M 54.117188 43.839844 C 54.042969 43.839844 53.984375 43.78125 53.984375 43.707031 C 53.984375 43.636719 54.042969 43.578125 54.117188 43.578125 C 54.191406 43.578125 54.25 43.636719 54.25 43.707031 C 54.25 43.746094 54.234375 43.777344 54.210938 43.800781 C 54.1875 43.824219 54.152344 43.839844 54.117188 43.839844 Z M 43.058594 55.390625 C 42.984375 55.390625 42.925781 55.328125 42.925781 55.257812 C 42.925781 55.183594 42.984375 55.125 43.058594 55.125 C 43.132812 55.125 43.191406 55.183594 43.191406 55.257812 C 43.191406 55.292969 43.175781 55.324219 43.152344 55.351562 C 43.128906 55.375 43.09375 55.390625 43.058594 55.390625 Z M 54.117188 45.03125 C 54.042969 45.03125 53.984375 44.972656 53.984375 44.898438 C 53.984375 44.824219 54.042969 44.765625 54.117188 44.765625 C 54.191406 44.765625 54.25 44.824219 54.25 44.898438 C 54.25 44.933594 54.234375 44.96875 54.210938 44.992188 C 54.1875 45.015625 54.152344 45.03125 54.117188 45.03125 Z M 44.25 55.390625 C 44.175781 55.390625 44.117188 55.332031 44.117188 55.257812 C 44.117188 55.183594 44.175781 55.125 44.25 55.125 C 44.320312 55.125 44.378906 55.183594 44.378906 55.257812 C 44.378906 55.292969 44.367188 55.328125 44.339844 55.351562 C 44.316406 55.375 44.285156 55.390625 44.25 55.390625 Z M 54.117188 46.222656 C 54.042969 46.222656 53.984375 46.160156 53.984375 46.089844 C 53.984375 46.015625 54.042969 45.957031 54.117188 45.957031 C 54.191406 45.957031 54.25 46.015625 54.25 46.089844 C 54.25 46.125 54.234375 46.160156 54.210938 46.183594 C 54.1875 46.207031 54.152344 46.222656 54.117188 46.222656 Z M 45.4375 55.390625 C 45.363281 55.390625 45.304688 55.332031 45.304688 55.257812 C 45.304688 55.183594 45.363281 55.125 45.4375 55.125 C 45.511719 55.125 45.570312 55.183594 45.570312 55.257812 C 45.570312 55.292969 45.554688 55.328125 45.53125 55.351562 C 45.507812 55.375 45.472656 55.390625 45.4375 55.390625 Z M 54.117188 47.410156 C 54.042969 47.410156 53.984375 47.351562 53.984375 47.277344 C 53.984375 47.207031 54.042969 47.144531 54.117188 47.144531 C 54.191406 47.144531 54.25 47.207031 54.25 47.277344 C 54.25 47.316406 54.234375 47.347656 54.210938 47.371094 C 54.1875 47.394531 54.152344 47.410156 54.117188 47.410156 Z M 46.628906 55.390625 C 46.554688 55.390625 46.496094 55.328125 46.496094 55.257812 C 46.496094 55.183594 46.554688 55.125 46.628906 55.125 C 46.699219 55.125 46.761719 55.183594 46.761719 55.257812 C 46.757812 55.292969 46.746094 55.324219 46.71875 55.351562 C 46.699219 55.375 46.664062 55.390625 46.628906 55.390625 Z M 54.117188 48.601562 C 54.042969 48.601562 53.984375 48.542969 53.984375 48.46875 C 53.984375 48.394531 54.042969 48.335938 54.117188 48.335938 C 54.191406 48.335938 54.25 48.394531 54.25 48.46875 C 54.25 48.503906 54.234375 48.539062 54.210938 48.5625 C 54.1875 48.585938 54.152344 48.601562 54.117188 48.601562 Z M 47.816406 55.390625 C 47.746094 55.390625 47.683594 55.332031 47.683594 55.257812 C 47.6875 55.183594 47.746094 55.125 47.816406 55.125 C 47.890625 55.125 47.949219 55.183594 47.949219 55.257812 C 47.949219 55.292969 47.933594 55.328125 47.910156 55.351562 C 47.886719 55.375 47.855469 55.390625 47.816406 55.390625 Z M 54.117188 49.789062 C 54.042969 49.789062 53.984375 49.730469 53.984375 49.65625 C 53.984375 49.585938 54.042969 49.527344 54.117188 49.527344 C 54.191406 49.527344 54.25 49.585938 54.25 49.65625 C 54.25 49.695312 54.234375 49.726562 54.210938 49.753906 C 54.1875 49.773438 54.152344 49.792969 54.117188 49.789062 Z M 49.007812 55.390625 C 48.933594 55.390625 48.875 55.332031 48.875 55.257812 C 48.875 55.183594 48.933594 55.125 49.007812 55.125 C 49.082031 55.125 49.140625 55.183594 49.140625 55.257812 C 49.140625 55.292969 49.125 55.328125 49.101562 55.351562 C 49.078125 55.375 49.042969 55.390625 49.007812 55.390625 Z M 54.117188 50.980469 C 54.042969 50.980469 53.984375 50.921875 53.984375 50.847656 C 53.984375 50.773438 54.042969 50.714844 54.117188 50.714844 C 54.191406 50.714844 54.25 50.777344 54.25 50.847656 C 54.25 50.882812 54.234375 50.917969 54.210938 50.941406 C 54.1875 50.964844 54.152344 50.980469 54.117188 50.980469 Z M 50.199219 55.390625 C 50.125 55.390625 50.066406 55.332031 50.066406 55.257812 C 50.066406 55.183594 50.125 55.125 50.195312 55.125 C 50.269531 55.125 50.328125 55.183594 50.328125 55.257812 C 50.328125 55.292969 50.3125 55.324219 50.289062 55.351562 C 50.265625 55.375 50.234375 55.390625 50.199219 55.390625 Z M 54.117188 52.171875 C 54.042969 52.171875 53.984375 52.109375 53.984375 52.039062 C 53.984375 51.964844 54.042969 51.90625 54.117188 51.90625 C 54.191406 51.90625 54.25 51.964844 54.25 52.039062 C 54.25 52.074219 54.234375 52.105469 54.210938 52.128906 C 54.1875 52.15625 54.152344 52.171875 54.117188 52.171875 Z M 51.386719 55.390625 C 51.3125 55.390625 51.253906 55.332031 51.253906 55.257812 C 51.253906 55.183594 51.3125 55.125 51.386719 55.125 C 51.460938 55.125 51.519531 55.183594 51.519531 55.257812 C 51.519531 55.292969 51.503906 55.328125 51.480469 55.351562 C 51.457031 55.375 51.425781 55.390625 51.386719 55.390625 Z M 54.117188 53.359375 C 54.042969 53.359375 53.984375 53.300781 53.984375 53.226562 C 53.984375 53.15625 54.042969 53.097656 54.117188 53.09375 C 54.191406 53.09375 54.25 53.15625 54.25 53.226562 C 54.25 53.265625 54.234375 53.296875 54.210938 53.320312 C 54.1875 53.34375 54.152344 53.359375 54.117188 53.359375 Z M 52.578125 55.390625 C 52.503906 55.390625 52.445312 55.332031 52.445312 55.257812 C 52.445312 55.183594 52.503906 55.125 52.578125 55.125 C 52.648438 55.125 52.710938 55.183594 52.710938 55.257812 C 52.707031 55.292969 52.695312 55.324219 52.671875 55.351562 C 52.644531 55.375 52.613281 55.386719 52.578125 55.390625 Z M 54.117188 54.550781 C 54.042969 54.550781 53.984375 54.492188 53.984375 54.417969 C 53.984375 54.34375 54.042969 54.285156 54.117188 54.285156 C 54.191406 54.285156 54.25 54.34375 54.25 54.417969 C 54.25 54.453125 54.234375 54.488281 54.210938 54.511719 C 54.1875 54.535156 54.152344 54.550781 54.117188 54.550781 Z M 53.765625 55.390625 C 53.695312 55.390625 53.636719 55.332031 53.636719 55.257812 C 53.636719 55.183594 53.695312 55.125 53.765625 55.125 C 53.839844 55.125 53.898438 55.183594 53.898438 55.257812 C 53.898438 55.292969 53.882812 55.324219 53.859375 55.347656 C 53.835938 55.375 53.804688 55.390625 53.765625 55.390625 Z M 9.730469 56.882812 L 55.742188 56.882812 L 55.742188 10.871094 L 9.730469 10.871094 Z M 55.96875 57.109375 C 55.945312 57.132812 55.914062 57.148438 55.875 57.148438 L 9.597656 57.148438 C 9.523438 57.148438 9.464844 57.089844 9.464844 57.015625 L 9.464844 10.738281 C 9.464844 10.664062 9.523438 10.605469 9.597656 10.605469 L 55.875 10.605469 C 55.949219 10.605469 56.007812 10.664062 56.007812 10.738281 L 56.007812 57.015625 C 56.007812 57.050781 55.992188 57.085938 55.96875 57.109375 " fill-opacity="1" fill-rule="nonzero"/></g></g></g></g><path fill="#62b94e" d="M 43.960938 17.121094 C 46.667969 10.710938 49.371094 9.847656 52.097656 9.847656 C 52.097656 9.847656 50.789062 14.957031 43.960938 17.121094 Z M 43.960938 17.121094 " fill-opacity="1" fill-rule="nonzero"/><g clip-path="url(#de94fae128)"><path fill="#62b94e" d="M 38.875 14.214844 C 38.359375 13.496094 37.96875 12.472656 37.605469 11.652344 C 36.96875 10.214844 36.4375 8.726562 36.015625 7.207031 C 35.464844 5.199219 35.632812 3.148438 36.128906 1.15625 C 36.347656 0.28125 36.710938 0.761719 37.230469 1.222656 C 37.898438 1.816406 38.472656 2.304688 38.949219 3.074219 C 39.910156 4.636719 40.347656 6.488281 40.507812 8.300781 C 40.695312 10.402344 39.824219 12.066406 38.875 14.214844 Z M 38.875 14.214844 " fill-opacity="1" fill-rule="nonzero"/></g><path fill="#62b94e" d="M 40.417969 15.535156 C 40.335938 14.832031 40.660156 13.929688 40.847656 13.261719 C 41.292969 11.671875 41.839844 10.046875 42.636719 8.597656 C 43.355469 7.289062 44.277344 6.070312 45.207031 4.917969 C 45.5625 4.476562 46.34375 3.421875 46.984375 3.371094 C 46.640625 5.328125 46.238281 7.1875 45.4375 9.058594 C 44.515625 11.210938 43.320312 13.683594 40.417969 15.535156 Z M 40.417969 15.535156 " fill-opacity="1" fill-rule="nonzero"/><path fill="#62b94e" d="M 34.332031 14.300781 C 33.527344 13.765625 32.90625 12.550781 32.433594 11.765625 C 31.960938 10.972656 31.523438 10.085938 31.222656 9.207031 C 30.832031 8.058594 30.628906 6.882812 30.625 5.667969 C 30.625 5.195312 30.617188 4.417969 30.933594 4.039062 C 31.480469 4.332031 32.042969 4.921875 32.511719 5.335938 C 33.238281 5.976562 33.707031 6.769531 34.042969 7.675781 C 34.675781 9.402344 35.1875 11.175781 34.332031 14.300781 Z M 34.332031 14.300781 " fill-opacity="1" fill-rule="nonzero"/><path fill="#62b94e" d="M 29.347656 16.199219 C 29.003906 14.929688 29.019531 13.589844 29.347656 12.320312 C 29.535156 11.578125 29.859375 10.402344 30.398438 9.847656 C 30.65625 10.871094 31.164062 11.703125 31.027344 12.8125 C 30.851562 14.21875 30.335938 15.566406 29.347656 16.199219 Z M 29.347656 16.199219 " fill-opacity="1" fill-rule="nonzero"/><path fill="#62b94e" d="M 27.890625 17.035156 C 24.070312 13.65625 22.203125 8.558594 22.472656 3.464844 C 22.738281 3.515625 22.941406 3.785156 23.160156 3.96875 C 23.519531 4.265625 23.914062 4.519531 24.273438 4.816406 C 25.074219 5.480469 25.726562 6.433594 26.195312 7.359375 C 27.25 9.429688 28.191406 11.988281 27.890625 17.035156 Z M 27.890625 17.035156 " fill-opacity="1" fill-rule="nonzero"/><path fill="#62b94e" d="M 21.894531 21.578125 C 21.59375 21.921875 20.722656 21.644531 20.355469 21.546875 C 19.398438 21.292969 18.433594 20.964844 17.585938 20.441406 C 15.671875 19.261719 14.164062 17.648438 12.769531 15.902344 C 12.167969 15.152344 11.613281 14.375 11.027344 13.617188 C 10.785156 13.308594 10.066406 12.578125 10.699219 12.5 C 11.054688 12.460938 11.722656 12.8125 12.078125 12.902344 C 12.625 13.039062 13.167969 13.179688 13.707031 13.355469 C 14.757812 13.699219 15.773438 14.054688 16.746094 14.585938 C 18.0625 15.300781 19.296875 16.222656 20.300781 17.339844 C 21.058594 18.183594 21.949219 19.402344 21.894531 21.578125 Z M 21.894531 21.578125 " fill-opacity="1" fill-rule="nonzero"/><path fill="#62b94e" d="M 25.773438 24.179688 C 25.550781 23.679688 25.148438 23.183594 24.890625 22.679688 C 24.519531 21.957031 24.324219 21.207031 24.140625 20.414062 C 23.765625 18.808594 23.289062 17.210938 23.355469 15.550781 C 23.824219 15.8125 24.164062 16.457031 24.449219 16.894531 C 24.933594 17.628906 25.410156 18.382812 25.734375 19.199219 C 26.066406 20.042969 26.214844 20.90625 26.257812 21.808594 C 26.292969 22.519531 26.398438 23.398438 25.773438 24.179688 Z M 25.773438 24.179688 " fill-opacity="1" fill-rule="nonzero"/><path fill="#62b94e" d="M 19.335938 26.960938 C 18.546875 26.816406 17.785156 26.222656 17.199219 25.703125 C 16.347656 24.941406 15.511719 24.105469 14.769531 23.226562 C 13.980469 22.289062 13.242188 21.300781 12.507812 20.320312 C 12.199219 19.914062 11.878906 19.515625 11.550781 19.121094 C 11.363281 18.898438 10.984375 18.539062 10.925781 18.265625 C 11.253906 18.242188 11.679688 18.582031 12 18.703125 C 12.460938 18.875 12.925781 19.027344 13.378906 19.230469 C 14.246094 19.621094 15.078125 20.125 15.832031 20.707031 C 17.445312 21.957031 19.164062 23.769531 19.335938 26.960938 Z M 19.335938 26.960938 " fill-opacity="1" fill-rule="nonzero"/><path fill="#62b94e" d="M 23.613281 32.429688 C 22.15625 31.835938 20.785156 31.214844 19.222656 30.921875 C 18.363281 30.761719 17.5 30.648438 16.636719 30.519531 C 16.125 30.441406 15.5625 30.515625 15.070312 30.40625 C 15.792969 30.886719 16.226562 31.71875 16.90625 32.28125 C 17.699219 32.941406 18.550781 33.476562 19.53125 33.785156 C 20.097656 33.960938 20.742188 34.097656 21.34375 34.015625 C 21.992188 33.929688 22.5625 33.429688 23.613281 32.429688 Z M 23.613281 32.429688 " fill-opacity="1" fill-rule="nonzero"/><path fill="#62b94e" d="M 16.160156 37.941406 C 15.71875 38.074219 15.011719 37.519531 14.664062 37.277344 C 13.773438 36.65625 13.117188 35.789062 12.511719 34.902344 C 11.757812 33.804688 11.28125 32.417969 10.9375 31.128906 C 10.792969 30.585938 10.386719 29.53125 10.601562 28.992188 C 11.101562 29.113281 11.789062 29.929688 12.207031 30.277344 C 12.878906 30.832031 13.617188 31.339844 14.179688 32.015625 C 15.214844 33.265625 15.960938 35.109375 16.160156 37.941406 Z M 16.160156 37.941406 " fill-opacity="1" fill-rule="nonzero"/><g clip-path="url(#c8df80a9b3)"><path fill="#62b94e" d="M 15.101562 41.160156 C 13.859375 40.128906 12.074219 40.007812 10.527344 40.320312 C 8.46875 40.738281 6.140625 41.726562 4.746094 43.371094 C 5.003906 43.523438 5.324219 43.4375 5.613281 43.453125 C 6.128906 43.484375 6.632812 43.605469 7.148438 43.609375 C 8.125 43.625 9.097656 43.402344 10.054688 43.242188 C 11.84375 42.941406 13.359375 42.5625 15.101562 41.160156 Z M 15.101562 41.160156 " fill-opacity="1" fill-rule="nonzero"/></g><path fill="#62b94e" d="M 15.234375 43.191406 C 13.9375 43.601562 12.445312 44.539062 11.394531 45.394531 C 10.003906 46.527344 9.046875 48.367188 8.351562 49.996094 C 8.027344 50.753906 7.734375 51.535156 7.613281 52.355469 C 7.515625 53.023438 7.65625 53.039062 8.195312 52.664062 C 9.449219 51.792969 10.664062 50.878906 11.796875 49.855469 C 13.390625 48.417969 14.167969 46.554688 15.234375 43.191406 Z M 15.234375 43.191406 " fill-opacity="1" fill-rule="nonzero"/><path fill="#62b94e" d="M 24.054688 42.042969 C 23.414062 42.152344 22.898438 42.835938 22.496094 43.269531 C 21.894531 43.917969 21.414062 44.535156 20.960938 45.304688 C 20.15625 46.671875 19.46875 48.324219 19.039062 49.828125 C 19.308594 49.675781 19.519531 49.394531 19.769531 49.199219 C 20.152344 48.898438 20.597656 48.703125 20.992188 48.40625 C 21.753906 47.828125 22.351562 47.179688 22.800781 46.328125 C 23.480469 45.046875 24.179688 43.152344 24.054688 42.042969 Z M 24.054688 42.042969 " fill-opacity="1" fill-rule="nonzero"/><path fill="#62b94e" d="M 38.125 46.144531 C 38.398438 45.730469 38.339844 44.921875 38.414062 44.429688 C 38.535156 43.617188 38.820312 42.820312 39.214844 42.097656 C 39.804688 41.027344 40.585938 39.859375 41.382812 38.929688 C 41.554688 40.105469 41.847656 41.207031 41.46875 42.394531 C 41.015625 43.800781 40.003906 45.257812 38.125 46.144531 Z M 38.125 46.144531 " fill-opacity="1" fill-rule="nonzero"/><path fill="#62b94e" d="M 42.136719 45.75 C 43.074219 44.390625 44.78125 43.289062 46.316406 42.773438 C 47.164062 42.492188 48.085938 42.363281 48.980469 42.351562 C 49.4375 42.347656 50.304688 42.21875 50.683594 42.476562 C 50.125 42.636719 49.609375 43.285156 49.144531 43.621094 C 48.496094 44.085938 47.75 44.523438 47.011719 44.828125 C 45.601562 45.40625 44.0625 45.75 42.136719 45.75 Z M 42.136719 45.75 " fill-opacity="1" fill-rule="nonzero"/><path fill="#62b94e" d="M 43.417969 47.117188 C 44.8125 48.003906 46.507812 48.472656 48.144531 48.746094 C 49.148438 48.914062 50.105469 48.945312 51.117188 48.769531 C 51.722656 48.664062 52.464844 48.617188 52.976562 48.261719 C 52.488281 47.898438 52.234375 47.242188 51.726562 46.863281 C 51.113281 46.402344 50.339844 46.238281 49.601562 46.089844 C 48.617188 45.894531 47.644531 45.925781 46.644531 46.082031 C 45.671875 46.234375 44.527344 46.675781 43.417969 47.117188 Z M 43.417969 47.117188 " fill-opacity="1" fill-rule="nonzero"/><path fill="#62b94e" d="M 47.429688 36.53125 C 47.394531 36.941406 47.921875 37.601562 48.136719 37.933594 C 48.765625 38.917969 49.28125 39.96875 50.097656 40.804688 C 50.761719 41.484375 51.566406 41.921875 52.488281 42.152344 C 53.003906 42.285156 53.886719 42.617188 54.398438 42.535156 C 52.664062 39.800781 51.375 36.265625 47.429688 36.53125 Z M 47.429688 36.53125 " fill-opacity="1" fill-rule="nonzero"/><g clip-path="url(#8b28518270)"><path fill="#62b94e" d="M 50.960938 35.339844 C 51.453125 35.003906 52.132812 34.8125 52.675781 34.558594 C 53.761719 34.046875 54.90625 33.65625 56.078125 33.417969 C 57.480469 33.132812 58.796875 33.269531 60.160156 33.527344 C 59.980469 34.222656 59.847656 34.769531 59.34375 35.335938 C 58.816406 35.925781 58.070312 36.25 57.316406 36.480469 C 55.378906 37.066406 53.570312 36.929688 50.960938 35.339844 Z M 50.960938 35.339844 " fill-opacity="1" fill-rule="nonzero"/></g><path fill="#62b94e" d="M 42.625 26.386719 C 42.566406 24.1875 43.347656 21.96875 44.609375 20.183594 C 45.175781 19.390625 45.824219 18.722656 46.582031 18.101562 C 47.054688 17.714844 47.554688 17.105469 48.132812 16.882812 C 48.136719 18.304688 48.195312 19.410156 47.539062 20.742188 C 46.71875 22.402344 45.867188 24.234375 42.625 26.386719 Z M 42.625 26.386719 " fill-opacity="1" fill-rule="nonzero"/><path fill="#62b94e" d="M 46.417969 28.898438 C 46.578125 28.140625 46.59375 27.34375 46.765625 26.585938 C 47.023438 25.453125 47.542969 24.378906 47.992188 23.3125 C 48.386719 22.375 48.753906 21.457031 49.359375 20.625 C 49.71875 20.132812 50.316406 19.171875 50.964844 19.078125 C 51.246094 20.660156 51.675781 22 51.109375 23.613281 C 50.382812 25.683594 49.054688 27.082031 46.417969 28.898438 Z M 46.417969 28.898438 " fill-opacity="1" fill-rule="nonzero"/><path fill="#62b94e" d="M 46.0625 32.382812 C 46.261719 31.804688 50.914062 26.328125 55.558594 27.488281 C 55.558594 27.488281 48.6875 33.53125 46.0625 32.382812 Z M 46.0625 32.382812 " fill-opacity="1" fill-rule="nonzero"/><path fill="#62b94e" d="M 51.269531 33.53125 C 51.613281 32.730469 52.53125 32.160156 53.207031 31.65625 C 53.804688 31.207031 54.5 30.804688 55.175781 30.484375 C 55.882812 30.152344 56.578125 29.84375 57.320312 29.585938 C 57.75 29.4375 58.324219 29.1875 58.765625 29.425781 C 58.601562 29.757812 58.015625 30.148438 57.75 30.457031 C 57.375 30.890625 56.945312 31.257812 56.46875 31.574219 C 55.273438 32.371094 53.976562 32.796875 51.269531 33.53125 Z M 51.269531 33.53125 " fill-opacity="1" fill-rule="nonzero"/><path fill="#62b94e" d="M 38.960938 32.472656 C 38.476562 30.914062 38.539062 29.339844 38.699219 27.734375 C 38.832031 26.363281 38.890625 24.871094 39.578125 23.652344 C 39.933594 23.9375 39.90625 24.890625 39.972656 25.324219 C 40.125 26.253906 40.148438 27.117188 40.058594 28.066406 C 39.941406 29.308594 39.773438 30.773438 38.960938 32.472656 Z M 38.960938 32.472656 " fill-opacity="1" fill-rule="nonzero"/><path fill="#62b94e" d="M 27.1875 25.679688 C 26.03125 25.683594 24.917969 25.765625 23.816406 26.097656 C 23.089844 26.320312 22.085938 26.398438 21.464844 26.828125 C 21.964844 26.785156 22.351562 27.046875 22.800781 27.226562 C 23.441406 27.480469 24.109375 27.613281 24.800781 27.578125 C 25.835938 27.527344 26.765625 27.152344 27.1875 25.679688 Z M 27.1875 25.679688 " fill-opacity="1" fill-rule="nonzero"/><path fill="#62b94e" d="M 26.570312 36.882812 C 26.492188 36.347656 26.292969 35.839844 26.265625 35.28125 C 26.226562 34.511719 26.222656 33.707031 26.28125 32.941406 C 26.363281 31.851562 26.445312 29.890625 27.277344 29.046875 C 27.988281 30.308594 27.949219 31.746094 27.828125 33.144531 C 27.714844 34.414062 27.625 35.921875 26.570312 36.882812 Z M 26.570312 36.882812 " fill-opacity="1" fill-rule="nonzero"/><g clip-path="url(#a811963f44)"><path fill="#4cc087" d="M 32.292969 57.269531 C 32.269531 57.269531 32.242188 57.269531 32.21875 57.261719 C 32.042969 57.21875 31.9375 57.046875 31.980469 56.875 C 32.726562 53.792969 31.394531 49.296875 30.152344 45.722656 C 28.335938 40.503906 25.492188 35.222656 22.148438 30.847656 C 20.71875 28.976562 19.199219 27.128906 17.730469 25.335938 C 16.664062 24.039062 15.5625 22.691406 14.5 21.351562 C 14.390625 21.214844 14.414062 21.011719 14.554688 20.902344 C 14.695312 20.789062 14.898438 20.8125 15.007812 20.953125 C 16.0625 22.289062 17.164062 23.632812 18.230469 24.929688 C 19.699219 26.722656 21.222656 28.578125 22.660156 30.457031 C 26.046875 34.882812 28.921875 40.226562 30.761719 45.511719 C 32.03125 49.167969 33.390625 53.78125 32.605469 57.023438 C 32.570312 57.171875 32.4375 57.269531 32.292969 57.269531 Z M 32.292969 57.269531 " fill-opacity="1" fill-rule="nonzero"/></g><g clip-path="url(#d5bf6e5ca5)"><path fill="#4cc087" d="M 32.292969 57.269531 C 32.261719 57.269531 32.230469 57.265625 32.195312 57.257812 C 32.027344 57.203125 31.933594 57.023438 31.984375 56.851562 C 32.335938 55.746094 32.433594 54.300781 32.527344 52.902344 C 32.59375 51.914062 32.65625 50.984375 32.804688 50.160156 C 33.234375 47.710938 33.722656 44.9375 34.59375 42.421875 C 35.839844 38.824219 37.214844 35.015625 39.152344 31.507812 C 40.226562 29.558594 41.488281 27.679688 42.710938 25.863281 C 43.984375 23.96875 45.296875 22.011719 46.386719 19.992188 C 46.46875 19.835938 46.664062 19.777344 46.820312 19.863281 C 46.976562 19.945312 47.035156 20.144531 46.953125 20.300781 C 45.851562 22.347656 44.527344 24.316406 43.246094 26.222656 C 42.03125 28.027344 40.777344 29.894531 39.714844 31.820312 C 37.804688 35.285156 36.4375 39.0625 35.203125 42.632812 C 34.347656 45.101562 33.863281 47.847656 33.4375 50.269531 C 33.296875 51.0625 33.234375 51.976562 33.171875 52.945312 C 33.074219 54.382812 32.972656 55.867188 32.601562 57.046875 C 32.558594 57.183594 32.429688 57.269531 32.292969 57.269531 Z M 32.292969 57.269531 " fill-opacity="1" fill-rule="nonzero"/></g><path fill="#4cc087" d="M 37.277344 48.640625 C 37.160156 48.640625 37.046875 48.578125 36.992188 48.464844 C 36.910156 48.308594 36.972656 48.113281 37.128906 48.03125 C 38.394531 47.378906 40.6875 46.800781 42.03125 46.792969 C 42.757812 46.785156 43.515625 46.835938 44.253906 46.886719 C 45.355469 46.960938 46.492188 47.035156 47.53125 46.925781 C 47.703125 46.90625 47.863281 47.035156 47.882812 47.214844 C 47.902344 47.390625 47.773438 47.550781 47.597656 47.566406 C 46.503906 47.683594 45.339844 47.605469 44.210938 47.527344 C 43.484375 47.480469 42.738281 47.429688 42.035156 47.433594 C 40.792969 47.445312 38.597656 48 37.425781 48.605469 C 37.378906 48.628906 37.328125 48.640625 37.277344 48.640625 Z M 37.277344 48.640625 " fill-opacity="1" fill-rule="nonzero"/><path fill="#4cc087" d="M 32.867188 52.96875 C 32.859375 52.96875 32.851562 52.96875 32.84375 52.96875 C 32.667969 52.953125 32.535156 52.800781 32.546875 52.621094 C 32.550781 52.578125 32.878906 48.070312 32.832031 46.328125 C 32.722656 42.058594 32.492188 38.640625 32.101562 35.5625 C 31.039062 27.214844 28.585938 19.40625 25.949219 11.480469 C 25.894531 11.308594 25.984375 11.128906 26.152344 11.070312 C 26.324219 11.015625 26.503906 11.105469 26.5625 11.277344 C 29.207031 19.238281 31.671875 27.078125 32.738281 35.480469 C 33.132812 38.578125 33.367188 42.023438 33.476562 46.3125 C 33.523438 48.085938 33.203125 52.484375 33.191406 52.667969 C 33.175781 52.839844 33.035156 52.96875 32.867188 52.96875 Z M 32.867188 52.96875 " fill-opacity="1" fill-rule="nonzero"/><path fill="#4cc087" d="M 32.789062 39.375 C 32.609375 39.375 32.464844 39.230469 32.464844 39.050781 C 32.464844 30.601562 35.753906 21.628906 42.519531 11.628906 C 42.621094 11.480469 42.820312 11.441406 42.96875 11.542969 C 43.113281 11.640625 43.152344 11.84375 43.054688 11.988281 C 36.363281 21.882812 33.109375 30.734375 33.109375 39.050781 C 33.109375 39.230469 32.964844 39.375 32.789062 39.375 Z M 32.789062 39.375 " fill-opacity="1" fill-rule="nonzero"/><path fill="#4cc087" d="M 35.167969 26.652344 C 35.128906 26.652344 35.09375 26.644531 35.054688 26.628906 C 34.890625 26.566406 34.804688 26.382812 34.867188 26.214844 C 35.433594 24.699219 35.148438 22.511719 34.898438 20.582031 C 34.800781 19.835938 34.710938 19.128906 34.671875 18.492188 C 34.546875 16.527344 34.132812 14.582031 33.734375 12.699219 C 33.453125 11.390625 33.167969 10.035156 32.980469 8.691406 C 32.957031 8.515625 33.078125 8.351562 33.253906 8.328125 C 33.429688 8.300781 33.59375 8.425781 33.617188 8.601562 C 33.800781 9.921875 34.085938 11.265625 34.363281 12.5625 C 34.769531 14.46875 35.1875 16.441406 35.3125 18.449219 C 35.351562 19.066406 35.441406 19.761719 35.539062 20.5 C 35.796875 22.503906 36.089844 24.773438 35.46875 26.441406 C 35.421875 26.570312 35.296875 26.652344 35.167969 26.652344 Z M 35.167969 26.652344 " fill-opacity="1" fill-rule="nonzero"/><path fill="#4cc087" d="M 35.609375 40.828125 C 35.574219 40.828125 35.539062 40.820312 35.503906 40.808594 C 35.335938 40.75 35.246094 40.566406 35.304688 40.398438 C 36.097656 38.085938 39.6875 35.804688 42.320312 34.289062 C 42.695312 34.074219 43.148438 33.808594 43.65625 33.511719 C 45.914062 32.191406 49.328125 30.199219 51.144531 29.441406 C 51.308594 29.371094 51.5 29.449219 51.566406 29.613281 C 51.636719 29.777344 51.558594 29.96875 51.394531 30.035156 C 49.613281 30.777344 46.226562 32.757812 43.980469 34.066406 C 43.472656 34.363281 43.019531 34.628906 42.644531 34.847656 C 41.179688 35.6875 36.71875 38.253906 35.914062 40.609375 C 35.867188 40.742188 35.742188 40.828125 35.609375 40.828125 Z M 35.609375 40.828125 " fill-opacity="1" fill-rule="nonzero"/><path fill="#4cc087" d="M 41.0625 35.851562 C 40.96875 35.851562 40.878906 35.8125 40.816406 35.734375 C 40.703125 35.601562 40.71875 35.398438 40.855469 35.28125 C 42.203125 34.148438 48.589844 26.324219 49.054688 23.207031 C 49.078125 23.03125 49.242188 22.910156 49.417969 22.9375 C 49.59375 22.960938 49.714844 23.125 49.691406 23.300781 C 49.195312 26.621094 42.695312 34.578125 41.269531 35.777344 C 41.210938 35.828125 41.136719 35.851562 41.0625 35.851562 Z M 41.0625 35.851562 " fill-opacity="1" fill-rule="nonzero"/><path fill="#4cc087" d="M 38.816406 37.246094 C 38.707031 37.246094 38.597656 37.1875 38.539062 37.085938 C 38.445312 36.933594 38.496094 36.738281 38.648438 36.644531 C 42.214844 34.515625 47.488281 34.746094 52.136719 34.953125 C 53.667969 35.019531 55.117188 35.082031 56.441406 35.0625 C 56.613281 35.054688 56.765625 35.203125 56.765625 35.378906 C 56.769531 35.558594 56.628906 35.703125 56.449219 35.707031 C 55.105469 35.726562 53.652344 35.664062 52.109375 35.59375 C 47.550781 35.394531 42.382812 35.167969 38.980469 37.199219 C 38.929688 37.230469 38.871094 37.246094 38.816406 37.246094 Z M 38.816406 37.246094 " fill-opacity="1" fill-rule="nonzero"/><path fill="#4cc087" d="M 46.425781 35.503906 C 46.347656 35.503906 46.269531 35.5 46.195312 35.496094 C 46.015625 35.484375 45.882812 35.332031 45.890625 35.15625 C 45.902344 34.976562 46.058594 34.84375 46.234375 34.851562 C 48.308594 34.976562 51.582031 33.125 53.75 31.902344 C 54.097656 31.703125 54.421875 31.523438 54.707031 31.363281 C 54.863281 31.28125 55.058594 31.335938 55.144531 31.492188 C 55.230469 31.648438 55.171875 31.84375 55.019531 31.929688 C 54.730469 32.085938 54.410156 32.265625 54.066406 32.460938 C 51.910156 33.679688 48.6875 35.503906 46.425781 35.503906 Z M 46.425781 35.503906 " fill-opacity="1" fill-rule="nonzero"/><path fill="#4cc087" d="M 51.269531 40.59375 C 51.179688 40.59375 51.089844 40.558594 51.027344 40.484375 C 50.707031 40.121094 50.429688 39.773438 50.15625 39.441406 C 49.371094 38.464844 48.695312 37.625 47.433594 36.882812 C 46.253906 36.1875 44.828125 35.851562 43.066406 35.851562 C 42.890625 35.851562 42.746094 35.707031 42.746094 35.527344 C 42.746094 35.351562 42.890625 35.207031 43.066406 35.207031 C 44.945312 35.207031 46.480469 35.574219 47.761719 36.328125 C 49.121094 37.128906 49.867188 38.054688 50.660156 39.035156 C 50.925781 39.367188 51.199219 39.707031 51.511719 40.058594 C 51.628906 40.195312 51.617188 40.398438 51.480469 40.515625 C 51.421875 40.570312 51.34375 40.59375 51.269531 40.59375 Z M 51.269531 40.59375 " fill-opacity="1" fill-rule="nonzero"/><path fill="#4cc087" d="M 33.902344 30.746094 C 33.851562 30.746094 33.796875 30.734375 33.75 30.707031 C 33.59375 30.621094 33.535156 30.425781 33.621094 30.269531 C 34.015625 29.550781 34.398438 28.785156 34.800781 27.972656 C 35.511719 26.539062 36.25 25.054688 37.109375 23.777344 C 39.113281 20.804688 41.808594 18.445312 44.410156 16.160156 C 45.667969 15.058594 46.964844 13.921875 48.167969 12.730469 C 48.292969 12.605469 48.496094 12.605469 48.621094 12.730469 C 48.746094 12.859375 48.746094 13.0625 48.621094 13.1875 C 47.40625 14.390625 46.097656 15.535156 44.835938 16.644531 C 42.261719 18.902344 39.601562 21.234375 37.644531 24.136719 C 36.808594 25.378906 36.082031 26.84375 35.378906 28.257812 C 34.972656 29.078125 34.589844 29.851562 34.183594 30.582031 C 34.125 30.6875 34.015625 30.746094 33.902344 30.746094 Z M 33.902344 30.746094 " fill-opacity="1" fill-rule="nonzero"/><path fill="#4cc087" d="M 37.835938 20.46875 C 37.800781 20.46875 37.765625 20.460938 37.730469 20.449219 C 37.5625 20.390625 37.476562 20.207031 37.535156 20.039062 C 38.121094 18.367188 38.574219 15.449219 38.65625 13.710938 C 38.667969 13.425781 38.683594 13.140625 38.703125 12.847656 C 38.808594 10.867188 38.921875 8.816406 38.449219 7 C 38.40625 6.828125 38.507812 6.652344 38.679688 6.609375 C 38.851562 6.566406 39.03125 6.667969 39.074219 6.839844 C 39.570312 8.75 39.449219 10.945312 39.34375 12.882812 C 39.328125 13.171875 39.3125 13.460938 39.300781 13.738281 C 39.210938 15.566406 38.753906 18.5 38.140625 20.253906 C 38.09375 20.386719 37.96875 20.46875 37.835938 20.46875 Z M 37.835938 20.46875 " fill-opacity="1" fill-rule="nonzero"/><path fill="#4cc087" d="M 31.890625 32.332031 C 31.765625 32.332031 31.644531 32.261719 31.59375 32.136719 C 29.179688 26.417969 23.277344 22.597656 18.070312 19.226562 C 17.714844 18.996094 17.367188 18.769531 17.023438 18.546875 C 16.875 18.449219 16.832031 18.25 16.929688 18.101562 C 17.023438 17.953125 17.226562 17.910156 17.375 18.007812 C 17.71875 18.230469 18.066406 18.457031 18.417969 18.683594 C 23.707031 22.105469 29.699219 25.984375 32.1875 31.886719 C 32.257812 32.050781 32.179688 32.238281 32.015625 32.308594 C 31.976562 32.324219 31.933594 32.332031 31.890625 32.332031 Z M 31.890625 32.332031 " fill-opacity="1" fill-rule="nonzero"/><path fill="#4cc087" d="M 29.390625 21.671875 C 29.226562 21.671875 29.082031 21.542969 29.070312 21.375 C 28.859375 18.71875 29.105469 14.625 29.976562 12.273438 C 30.039062 12.105469 30.226562 12.019531 30.390625 12.082031 C 30.558594 12.144531 30.644531 12.328125 30.582031 12.496094 C 29.738281 14.761719 29.503906 18.734375 29.710938 21.324219 C 29.726562 21.5 29.59375 21.65625 29.417969 21.671875 C 29.410156 21.671875 29.398438 21.671875 29.390625 21.671875 Z M 29.390625 21.671875 " fill-opacity="1" fill-rule="nonzero"/><path fill="#4cc087" d="M 30.710938 46.777344 C 30.582031 46.777344 30.460938 46.699219 30.410156 46.570312 C 29.414062 43.953125 26.199219 42.789062 23.675781 42.273438 C 20.074219 41.539062 14.96875 40.902344 11.105469 42.019531 C 10.933594 42.070312 10.757812 41.972656 10.707031 41.800781 C 10.65625 41.628906 10.757812 41.449219 10.925781 41.402344 C 14.914062 40.246094 20.132812 40.894531 23.804688 41.644531 C 26.484375 42.191406 29.914062 43.449219 31.011719 46.339844 C 31.074219 46.507812 30.992188 46.691406 30.828125 46.757812 C 30.789062 46.769531 30.75 46.777344 30.710938 46.777344 Z M 30.710938 46.777344 " fill-opacity="1" fill-rule="nonzero"/><path fill="#4cc087" d="M 21.351562 41.839844 C 21.308594 41.839844 21.261719 41.832031 21.21875 41.8125 C 18.507812 40.558594 14.859375 37.433594 13.457031 34.371094 C 13.382812 34.207031 13.453125 34.015625 13.613281 33.941406 C 13.777344 33.867188 13.96875 33.9375 14.039062 34.101562 C 15.382812 37.027344 18.882812 40.023438 21.488281 41.226562 C 21.648438 41.300781 21.71875 41.492188 21.644531 41.652344 C 21.589844 41.769531 21.476562 41.839844 21.351562 41.839844 Z M 21.351562 41.839844 " fill-opacity="1" fill-rule="nonzero"/><path fill="#4cc087" d="M 11.878906 47.0625 C 11.8125 47.0625 11.75 47.042969 11.691406 47.003906 C 11.546875 46.898438 11.515625 46.699219 11.617188 46.554688 C 12.734375 44.996094 16.769531 40.902344 19.261719 40.941406 C 19.441406 40.941406 19.582031 41.089844 19.582031 41.265625 C 19.578125 41.445312 19.429688 41.585938 19.253906 41.585938 C 19.246094 41.585938 19.242188 41.585938 19.234375 41.585938 C 17.238281 41.585938 13.460938 45.085938 12.140625 46.929688 C 12.078125 47.015625 11.980469 47.0625 11.878906 47.0625 Z M 11.878906 47.0625 " fill-opacity="1" fill-rule="nonzero"/><path fill="#4cc087" d="M 32.71875 54.90625 C 32.679688 54.90625 32.640625 54.898438 32.605469 54.886719 C 32.4375 54.820312 32.355469 54.636719 32.417969 54.46875 C 33.003906 52.945312 34.441406 50.257812 35.820312 49.058594 C 38.753906 46.496094 42.519531 45.121094 46.125 43.933594 C 46.292969 43.878906 46.476562 43.96875 46.53125 44.136719 C 46.589844 44.308594 46.496094 44.488281 46.328125 44.542969 C 42.785156 45.714844 39.085938 47.0625 36.242188 49.542969 C 35.070312 50.566406 33.683594 52.96875 33.019531 54.699219 C 32.972656 54.828125 32.847656 54.90625 32.71875 54.90625 Z M 32.71875 54.90625 " fill-opacity="1" fill-rule="nonzero"/><path fill="#4cc087" d="M 35.46875 50.191406 C 35.4375 50.191406 35.40625 50.1875 35.375 50.179688 C 35.203125 50.125 35.109375 49.945312 35.160156 49.777344 C 35.585938 48.382812 36.574219 47.320312 37.53125 46.292969 C 38.339844 45.421875 39.175781 44.523438 39.648438 43.441406 C 39.71875 43.277344 39.90625 43.203125 40.070312 43.273438 C 40.234375 43.347656 40.308594 43.535156 40.238281 43.699219 C 39.722656 44.882812 38.847656 45.820312 38.003906 46.730469 C 37.054688 47.75 36.160156 48.714844 35.777344 49.964844 C 35.734375 50.105469 35.605469 50.191406 35.46875 50.191406 Z M 35.46875 50.191406 " fill-opacity="1" fill-rule="nonzero"/></svg>